<svg width="10144" height="900" viewBox="0 0 10144 900" fill="none" xmlns="http://www.w3.org/2000/svg">
<g clip-path="url(#clip0)">
<rect width="10144" height="900" fill="#F5EE52"/>
<path d="M137.389 79.213V80.8555L141.495 93.4484L81.5421 262.357V264H122.058V262.357C94.135 251.955 93.3137 248.396 107.275 208.975L110.834 198.845H177.631L195.699 253.323L172.156 262.357V264H215.958V262.357L156.278 79.213H137.389ZM144.78 102.482H145.875L175.989 193.918H112.477L144.78 102.482ZM336.897 79.213H210.42V135.881H212.063C225.751 85.7832 223.561 84.1407 246.009 84.1407H265.446V254.145L241.629 262.357V264H305.688V262.357L281.871 254.145V84.1407H301.308C323.756 84.1407 321.566 85.7832 335.254 135.881H336.897V79.213ZM473.712 79.213H347.235V135.881H348.878C362.566 85.7832 360.376 84.1407 382.824 84.1407H402.261V254.145L378.444 262.357V264H442.503V262.357L418.686 254.145V84.1407H438.123C460.571 84.1407 458.381 85.7832 472.069 135.881H473.712V79.213ZM509.784 254.145L485.967 262.357V264H550.026V262.357L526.209 254.145V89.0683L550.026 80.8555V79.213H485.967V80.8555L509.784 89.0683V254.145ZM688.794 79.213H562.318V135.881H563.96C577.648 85.7832 575.458 84.1407 597.906 84.1407H617.343V254.145L593.526 262.357V264H657.586V262.357L633.769 254.145V84.1407H653.205C675.654 84.1407 673.464 85.7832 687.152 135.881H688.794V79.213ZM837.381 79.213H798.507V80.8555L821.229 89.8896L820.955 237.445C809.457 246.206 798.781 254.145 779.618 254.145C756.896 254.145 736.09 243.194 736.09 208.153V79.213H697.216V80.8555L719.938 89.8896L719.665 210.891C719.665 248.943 741.292 266.738 775.511 266.738C782.082 266.738 803.982 255.24 820.955 242.647V264H859.829V262.357L837.107 253.323L837.381 79.213ZM929.039 79.213H871.549V80.8555L894.271 89.8896V253.323L871.549 262.357V264H920.826C995.836 264 1020.47 213.081 1020.47 169.28C1020.47 110.421 985.98 79.213 929.039 79.213ZM910.423 259.072V84.1407H921.921C978.589 84.1407 1003.23 119.182 1003.23 171.47C1003.23 227.043 978.863 258.525 919.457 259.072H910.423ZM1159.79 207.332C1158.14 213.081 1156.78 218.009 1155.68 222.389C1145.83 258.525 1145.55 259.072 1127.48 259.072H1068.63V172.838H1102.3C1120.09 172.838 1118.18 181.599 1126.94 206.237H1128.58V134.512H1126.94C1118.18 158.603 1120.09 167.911 1102.3 167.911H1068.63V84.1407H1123.38C1141.45 84.1407 1141.72 84.6882 1151.57 120.824C1152.67 125.204 1154.04 130.132 1155.68 135.881H1157.32V79.213H1029.75V80.8555L1052.47 89.8896V253.323L1029.75 262.357V264H1161.43V207.332H1159.79ZM1260.1 254.145L1236.28 262.357V264H1300.34V262.357L1276.52 254.145V89.0683L1300.34 80.8555V79.213H1236.28V80.8555L1260.1 89.0683V254.145ZM1378.06 159.424C1355.61 148.748 1333.44 137.797 1333.44 115.623C1333.44 97.0073 1348.49 87.6995 1368.2 87.6995C1401.33 87.6995 1421.04 109.874 1430.35 146.284H1431.99V77.8442H1430.07L1422.68 94.2697C1412.83 84.6882 1396.4 77.5704 1378.06 77.5704C1350.68 77.5704 1325.77 94.2697 1325.77 124.931C1325.77 155.318 1350.41 165.447 1372.31 175.576L1380.52 179.409C1404.89 190.633 1431.44 201.036 1431.44 227.043C1431.44 243.194 1421.59 257.704 1391.2 257.704C1368.75 257.704 1329.88 249.491 1320.57 186.526L1318.38 186.8L1326.04 255.513C1344.66 258.525 1356.98 267.285 1381.07 267.285C1420.22 267.285 1440.48 242.921 1440.48 216.092C1440.48 184.61 1411.73 175.576 1384.9 162.709L1378.06 159.424Z" fill="black"/>
<path d="M5875.39 79.213V80.8555L5879.5 93.4484L5819.54 262.357V264H5860.06V262.357C5832.13 251.955 5831.31 248.396 5845.28 208.975L5848.83 198.845H5915.63L5933.7 253.323L5910.16 262.357V264H5953.96V262.357L5894.28 79.213H5875.39ZM5882.78 102.482H5883.88L5913.99 193.918H5850.48L5882.78 102.482ZM6074.9 79.213H5948.42V135.881H5950.06C5963.75 85.7832 5961.56 84.1407 5984.01 84.1407H6003.45V254.145L5979.63 262.357V264H6043.69V262.357L6019.87 254.145V84.1407H6039.31C6061.76 84.1407 6059.57 85.7832 6073.25 135.881H6074.9V79.213ZM6211.71 79.213H6085.24V135.881H6086.88C6100.57 85.7832 6098.38 84.1407 6120.82 84.1407H6140.26V254.145L6116.44 262.357V264H6180.5V262.357L6156.69 254.145V84.1407H6176.12C6198.57 84.1407 6196.38 85.7832 6210.07 135.881H6211.71V79.213ZM6247.78 254.145L6223.97 262.357V264H6288.03V262.357L6264.21 254.145V89.0683L6288.03 80.8555V79.213H6223.97V80.8555L6247.78 89.0683V254.145ZM6426.79 79.213H6300.32V135.881H6301.96C6315.65 85.7832 6313.46 84.1407 6335.91 84.1407H6355.34V254.145L6331.53 262.357V264H6395.59V262.357L6371.77 254.145V84.1407H6391.21C6413.65 84.1407 6411.46 85.7832 6425.15 135.881H6426.79V79.213ZM6575.38 79.213H6536.51V80.8555L6559.23 89.8896L6558.96 237.445C6547.46 246.206 6536.78 254.145 6517.62 254.145C6494.9 254.145 6474.09 243.194 6474.09 208.153V79.213H6435.22V80.8555L6457.94 89.8896L6457.66 210.891C6457.66 248.943 6479.29 266.738 6513.51 266.738C6520.08 266.738 6541.98 255.24 6558.96 242.647V264H6597.83V262.357L6575.11 253.323L6575.38 79.213ZM6667.04 79.213H6609.55V80.8555L6632.27 89.8896V253.323L6609.55 262.357V264H6658.83C6733.84 264 6758.47 213.081 6758.47 169.28C6758.47 110.421 6723.98 79.213 6667.04 79.213ZM6648.42 259.072V84.1407H6659.92C6716.59 84.1407 6741.23 119.182 6741.23 171.47C6741.23 227.043 6716.86 258.525 6657.46 259.072H6648.42ZM6897.79 207.332C6896.14 213.081 6894.78 218.009 6893.68 222.389C6883.83 258.525 6883.55 259.072 6865.48 259.072H6806.63V172.838H6840.3C6858.09 172.838 6856.18 181.599 6864.94 206.237H6866.58V134.512H6864.94C6856.18 158.603 6858.09 167.911 6840.3 167.911H6806.63V84.1407H6861.38C6879.45 84.1407 6879.72 84.6882 6889.57 120.824C6890.67 125.204 6892.04 130.132 6893.68 135.881H6895.32V79.213H6767.75V80.8555L6790.47 89.8896V253.323L6767.75 262.357V264H6899.43V207.332H6897.79ZM6998.1 254.145L6974.28 262.357V264H7038.34V262.357L7014.52 254.145V89.0683L7038.34 80.8555V79.213H6974.28V80.8555L6998.1 89.0683V254.145ZM7116.06 159.424C7093.61 148.748 7071.44 137.797 7071.44 115.623C7071.44 97.0073 7086.49 87.6995 7106.2 87.6995C7139.33 87.6995 7159.04 109.874 7168.35 146.284H7169.99V77.8442H7168.07L7160.68 94.2697C7150.83 84.6882 7134.4 77.5704 7116.06 77.5704C7088.68 77.5704 7063.77 94.2697 7063.77 124.931C7063.77 155.318 7088.41 165.447 7110.31 175.576L7118.52 179.409C7142.89 190.633 7169.44 201.036 7169.44 227.043C7169.44 243.194 7159.59 257.704 7129.2 257.704C7106.75 257.704 7067.88 249.491 7058.57 186.526L7056.38 186.8L7064.04 255.513C7082.66 258.525 7094.98 267.285 7119.07 267.285C7158.22 267.285 7178.48 242.921 7178.48 216.092C7178.48 184.61 7149.73 175.576 7122.9 162.709L7116.06 159.424Z" fill="black"/>
<path d="M3009.39 79.213V80.8555L3013.5 93.4484L2953.54 262.357V264H2994.06V262.357C2966.13 251.955 2965.31 248.396 2979.28 208.975L2982.83 198.845H3049.63L3067.7 253.323L3044.16 262.357V264H3087.96V262.357L3028.28 79.213H3009.39ZM3016.78 102.482H3017.88L3047.99 193.918H2984.48L3016.78 102.482ZM3208.9 79.213H3082.42V135.881H3084.06C3097.75 85.7832 3095.56 84.1407 3118.01 84.1407H3137.45V254.145L3113.63 262.357V264H3177.69V262.357L3153.87 254.145V84.1407H3173.31C3195.76 84.1407 3193.57 85.7832 3207.25 135.881H3208.9V79.213ZM3345.71 79.213H3219.24V135.881H3220.88C3234.57 85.7832 3232.38 84.1407 3254.82 84.1407H3274.26V254.145L3250.44 262.357V264H3314.5V262.357L3290.69 254.145V84.1407H3310.12C3332.57 84.1407 3330.38 85.7832 3344.07 135.881H3345.71V79.213ZM3381.78 254.145L3357.97 262.357V264H3422.03V262.357L3398.21 254.145V89.0683L3422.03 80.8555V79.213H3357.97V80.8555L3381.78 89.0683V254.145ZM3560.79 79.213H3434.32V135.881H3435.96C3449.65 85.7832 3447.46 84.1407 3469.91 84.1407H3489.34V254.145L3465.53 262.357V264H3529.59V262.357L3505.77 254.145V84.1407H3525.21C3547.65 84.1407 3545.46 85.7832 3559.15 135.881H3560.79V79.213ZM3709.38 79.213H3670.51V80.8555L3693.23 89.8896L3692.96 237.445C3681.46 246.206 3670.78 254.145 3651.62 254.145C3628.9 254.145 3608.09 243.194 3608.09 208.153V79.213H3569.22V80.8555L3591.94 89.8896L3591.66 210.891C3591.66 248.943 3613.29 266.738 3647.51 266.738C3654.08 266.738 3675.98 255.24 3692.96 242.647V264H3731.83V262.357L3709.11 253.323L3709.38 79.213ZM3801.04 79.213H3743.55V80.8555L3766.27 89.8896V253.323L3743.55 262.357V264H3792.83C3867.84 264 3892.47 213.081 3892.47 169.28C3892.47 110.421 3857.98 79.213 3801.04 79.213ZM3782.42 259.072V84.1407H3793.92C3850.59 84.1407 3875.23 119.182 3875.23 171.47C3875.23 227.043 3850.86 258.525 3791.46 259.072H3782.42ZM4031.79 207.332C4030.14 213.081 4028.78 218.009 4027.68 222.389C4017.83 258.525 4017.55 259.072 3999.48 259.072H3940.63V172.838H3974.3C3992.09 172.838 3990.18 181.599 3998.94 206.237H4000.58V134.512H3998.94C3990.18 158.603 3992.09 167.911 3974.3 167.911H3940.63V84.1407H3995.38C4013.45 84.1407 4013.72 84.6882 4023.57 120.824C4024.67 125.204 4026.04 130.132 4027.68 135.881H4029.32V79.213H3901.75V80.8555L3924.47 89.8896V253.323L3901.75 262.357V264H4033.43V207.332H4031.79ZM4132.1 254.145L4108.28 262.357V264H4172.34V262.357L4148.52 254.145V89.0683L4172.34 80.8555V79.213H4108.28V80.8555L4132.1 89.0683V254.145ZM4250.06 159.424C4227.61 148.748 4205.44 137.797 4205.44 115.623C4205.44 97.0073 4220.49 87.6995 4240.2 87.6995C4273.33 87.6995 4293.04 109.874 4302.35 146.284H4303.99V77.8442H4302.07L4294.68 94.2697C4284.83 84.6882 4268.4 77.5704 4250.06 77.5704C4222.68 77.5704 4197.77 94.2697 4197.77 124.931C4197.77 155.318 4222.41 165.447 4244.31 175.576L4252.52 179.409C4276.89 190.633 4303.44 201.036 4303.44 227.043C4303.44 243.194 4293.59 257.704 4263.2 257.704C4240.75 257.704 4201.88 249.491 4192.57 186.526L4190.38 186.8L4198.04 255.513C4216.66 258.525 4228.98 267.285 4253.07 267.285C4292.22 267.285 4312.48 242.921 4312.48 216.092C4312.48 184.61 4283.73 175.576 4256.9 162.709L4250.06 159.424Z" fill="black"/>
<path d="M8747.39 79.213V80.8555L8751.5 93.4484L8691.54 262.357V264H8732.06V262.357C8704.14 251.955 8703.31 248.396 8717.28 208.975L8720.83 198.845H8787.63L8805.7 253.323L8782.16 262.357V264H8825.96V262.357L8766.28 79.213H8747.39ZM8754.78 102.482H8755.88L8785.99 193.918H8722.48L8754.78 102.482ZM8946.9 79.213H8820.42V135.881H8822.06C8835.75 85.7832 8833.56 84.1407 8856.01 84.1407H8875.45V254.145L8851.63 262.357V264H8915.69V262.357L8891.87 254.145V84.1407H8911.31C8933.76 84.1407 8931.57 85.7832 8945.25 135.881H8946.9V79.213ZM9083.71 79.213H8957.24V135.881H8958.88C8972.57 85.7832 8970.38 84.1407 8992.82 84.1407H9012.26V254.145L8988.44 262.357V264H9052.5V262.357L9028.69 254.145V84.1407H9048.12C9070.57 84.1407 9068.38 85.7832 9082.07 135.881H9083.71V79.213ZM9119.78 254.145L9095.97 262.357V264H9160.03V262.357L9136.21 254.145V89.0683L9160.03 80.8555V79.213H9095.97V80.8555L9119.78 89.0683V254.145ZM9298.79 79.213H9172.32V135.881H9173.96C9187.65 85.7832 9185.46 84.1407 9207.91 84.1407H9227.34V254.145L9203.53 262.357V264H9267.59V262.357L9243.77 254.145V84.1407H9263.21C9285.65 84.1407 9283.46 85.7832 9297.15 135.881H9298.79V79.213ZM9447.38 79.213H9408.51V80.8555L9431.23 89.8896L9430.96 237.445C9419.46 246.206 9408.78 254.145 9389.62 254.145C9366.9 254.145 9346.09 243.194 9346.09 208.153V79.213H9307.22V80.8555L9329.94 89.8896L9329.67 210.891C9329.67 248.943 9351.29 266.738 9385.51 266.738C9392.08 266.738 9413.98 255.24 9430.96 242.647V264H9469.83V262.357L9447.11 253.323L9447.38 79.213ZM9539.04 79.213H9481.55V80.8555L9504.27 89.8896V253.323L9481.55 262.357V264H9530.83C9605.84 264 9630.47 213.081 9630.47 169.28C9630.47 110.421 9595.98 79.213 9539.04 79.213ZM9520.42 259.072V84.1407H9531.92C9588.59 84.1407 9613.23 119.182 9613.23 171.47C9613.23 227.043 9588.86 258.525 9529.46 259.072H9520.42ZM9769.79 207.332C9768.15 213.081 9766.78 218.009 9765.68 222.389C9755.83 258.525 9755.55 259.072 9737.48 259.072H9678.63V172.838H9712.3C9730.09 172.838 9728.18 181.599 9736.94 206.237H9738.58V134.512H9736.94C9728.18 158.603 9730.09 167.911 9712.3 167.911H9678.63V84.1407H9733.38C9751.45 84.1407 9751.72 84.6882 9761.57 120.824C9762.67 125.204 9764.04 130.132 9765.68 135.881H9767.32V79.213H9639.75V80.8555L9662.47 89.8896V253.323L9639.75 262.357V264H9771.43V207.332H9769.79ZM9870.1 254.145L9846.28 262.357V264H9910.34V262.357L9886.52 254.145V89.0683L9910.34 80.8555V79.213H9846.28V80.8555L9870.1 89.0683V254.145ZM9988.06 159.424C9965.61 148.748 9943.44 137.797 9943.44 115.623C9943.44 97.0073 9958.49 87.6995 9978.2 87.6995C10011.3 87.6995 10031 109.874 10040.3 146.284H10042V77.8442H10040.1L10032.7 94.2697C10022.8 84.6882 10006.4 77.5704 9988.06 77.5704C9960.68 77.5704 9935.77 94.2697 9935.77 124.931C9935.77 155.318 9960.41 165.447 9982.31 175.576L9990.52 179.409C10014.9 190.633 10041.4 201.036 10041.4 227.043C10041.4 243.194 10031.6 257.704 10001.2 257.704C9978.75 257.704 9939.88 249.491 9930.57 186.526L9928.38 186.8L9936.04 255.513C9954.66 258.525 9966.98 267.285 9991.07 267.285C10030.2 267.285 10050.5 242.921 10050.5 216.092C10050.5 184.61 10021.7 175.576 9994.9 162.709L9988.06 159.424Z" fill="black"/>
<path d="M1574.39 639.213V640.856L1578.5 653.448L1518.54 822.357V824H1559.06V822.357C1531.13 811.955 1530.31 808.396 1544.28 768.975L1547.83 758.845H1614.63L1632.7 813.323L1609.16 822.357V824H1652.96V822.357L1593.28 639.213H1574.39ZM1581.78 662.482H1582.88L1612.99 753.918H1549.48L1581.78 662.482ZM1773.9 639.213H1647.42V695.881H1649.06C1662.75 645.783 1660.56 644.141 1683.01 644.141H1702.45V814.145L1678.63 822.357V824H1742.69V822.357L1718.87 814.145V644.141H1738.31C1760.76 644.141 1758.57 645.783 1772.25 695.881H1773.9V639.213ZM1910.71 639.213H1784.24V695.881H1785.88C1799.57 645.783 1797.38 644.141 1819.82 644.141H1839.26V814.145L1815.44 822.357V824H1879.5V822.357L1855.69 814.145V644.141H1875.12C1897.57 644.141 1895.38 645.783 1909.07 695.881H1910.71V639.213ZM1946.78 814.145L1922.97 822.357V824H1987.03V822.357L1963.21 814.145V649.068L1987.03 640.856V639.213H1922.97V640.856L1946.78 649.068V814.145ZM2125.79 639.213H1999.32V695.881H2000.96C2014.65 645.783 2012.46 644.141 2034.91 644.141H2054.34V814.145L2030.53 822.357V824H2094.59V822.357L2070.77 814.145V644.141H2090.21C2112.65 644.141 2110.46 645.783 2124.15 695.881H2125.79V639.213ZM2274.38 639.213H2235.51V640.856L2258.23 649.89L2257.96 797.445C2246.46 806.206 2235.78 814.145 2216.62 814.145C2193.9 814.145 2173.09 803.194 2173.09 768.153V639.213H2134.22V640.856L2156.94 649.89L2156.66 770.891C2156.66 808.943 2178.29 826.738 2212.51 826.738C2219.08 826.738 2240.98 815.24 2257.96 802.647V824H2296.83V822.357L2274.11 813.323L2274.38 639.213ZM2366.04 639.213H2308.55V640.856L2331.27 649.89V813.323L2308.55 822.357V824H2357.83C2432.84 824 2457.47 773.081 2457.47 729.28C2457.47 670.421 2422.98 639.213 2366.04 639.213ZM2347.42 819.072V644.141H2358.92C2415.59 644.141 2440.23 679.182 2440.23 731.47C2440.23 787.043 2415.86 818.525 2356.46 819.072H2347.42ZM2596.79 767.332C2595.14 773.081 2593.78 778.009 2592.68 782.389C2582.83 818.525 2582.55 819.072 2564.48 819.072H2505.63V732.838H2539.3C2557.09 732.838 2555.18 741.599 2563.94 766.237H2565.58V694.512H2563.94C2555.18 718.603 2557.09 727.911 2539.3 727.911H2505.63V644.141H2560.38C2578.45 644.141 2578.72 644.688 2588.57 680.824C2589.67 685.204 2591.04 690.132 2592.68 695.881H2594.32V639.213H2466.75V640.856L2489.47 649.89V813.323L2466.75 822.357V824H2598.43V767.332H2596.79ZM2697.1 814.145L2673.28 822.357V824H2737.34V822.357L2713.52 814.145V649.068L2737.34 640.856V639.213H2673.28V640.856L2697.1 649.068V814.145ZM2815.06 719.424C2792.61 708.748 2770.44 697.797 2770.44 675.623C2770.44 657.007 2785.49 647.7 2805.2 647.7C2838.33 647.7 2858.04 669.874 2867.35 706.284H2868.99V637.844H2867.07L2859.68 654.27C2849.83 644.688 2833.4 637.57 2815.06 637.57C2787.68 637.57 2762.77 654.27 2762.77 684.931C2762.77 715.318 2787.41 725.447 2809.31 735.576L2817.52 739.409C2841.89 750.633 2868.44 761.036 2868.44 787.043C2868.44 803.194 2858.59 817.704 2828.2 817.704C2805.75 817.704 2766.88 809.491 2757.57 746.526L2755.38 746.8L2763.04 815.513C2781.66 818.525 2793.98 827.285 2818.07 827.285C2857.22 827.285 2877.48 802.921 2877.48 776.092C2877.48 744.61 2848.73 735.576 2821.9 722.709L2815.06 719.424Z" fill="black"/>
<path d="M7312.39 639.213V640.856L7316.5 653.448L7256.54 822.357V824H7297.06V822.357C7269.13 811.955 7268.31 808.396 7282.28 768.975L7285.83 758.845H7352.63L7370.7 813.323L7347.16 822.357V824H7390.96V822.357L7331.28 639.213H7312.39ZM7319.78 662.482H7320.88L7350.99 753.918H7287.48L7319.78 662.482ZM7511.9 639.213H7385.42V695.881H7387.06C7400.75 645.783 7398.56 644.141 7421.01 644.141H7440.45V814.145L7416.63 822.357V824H7480.69V822.357L7456.87 814.145V644.141H7476.31C7498.76 644.141 7496.57 645.783 7510.25 695.881H7511.9V639.213ZM7648.71 639.213H7522.24V695.881H7523.88C7537.57 645.783 7535.38 644.141 7557.82 644.141H7577.26V814.145L7553.44 822.357V824H7617.5V822.357L7593.69 814.145V644.141H7613.12C7635.57 644.141 7633.38 645.783 7647.07 695.881H7648.71V639.213ZM7684.78 814.145L7660.97 822.357V824H7725.03V822.357L7701.21 814.145V649.068L7725.03 640.856V639.213H7660.97V640.856L7684.78 649.068V814.145ZM7863.79 639.213H7737.32V695.881H7738.96C7752.65 645.783 7750.46 644.141 7772.91 644.141H7792.34V814.145L7768.53 822.357V824H7832.59V822.357L7808.77 814.145V644.141H7828.21C7850.65 644.141 7848.46 645.783 7862.15 695.881H7863.79V639.213ZM8012.38 639.213H7973.51V640.856L7996.23 649.89L7995.96 797.445C7984.46 806.206 7973.78 814.145 7954.62 814.145C7931.9 814.145 7911.09 803.194 7911.09 768.153V639.213H7872.22V640.856L7894.94 649.89L7894.66 770.891C7894.66 808.943 7916.29 826.738 7950.51 826.738C7957.08 826.738 7978.98 815.24 7995.96 802.647V824H8034.83V822.357L8012.11 813.323L8012.38 639.213ZM8104.04 639.213H8046.55V640.856L8069.27 649.89V813.323L8046.55 822.357V824H8095.83C8170.84 824 8195.47 773.081 8195.47 729.28C8195.47 670.421 8160.98 639.213 8104.04 639.213ZM8085.42 819.072V644.141H8096.92C8153.59 644.141 8178.23 679.182 8178.23 731.47C8178.23 787.043 8153.86 818.525 8094.46 819.072H8085.42ZM8334.79 767.332C8333.14 773.081 8331.78 778.009 8330.68 782.389C8320.83 818.525 8320.55 819.072 8302.48 819.072H8243.63V732.838H8277.3C8295.09 732.838 8293.18 741.599 8301.94 766.237H8303.58V694.512H8301.94C8293.18 718.603 8295.09 727.911 8277.3 727.911H8243.63V644.141H8298.38C8316.45 644.141 8316.72 644.688 8326.57 680.824C8327.67 685.204 8329.04 690.132 8330.68 695.881H8332.32V639.213H8204.75V640.856L8227.47 649.89V813.323L8204.75 822.357V824H8336.43V767.332H8334.79ZM8435.1 814.145L8411.28 822.357V824H8475.34V822.357L8451.52 814.145V649.068L8475.34 640.856V639.213H8411.28V640.856L8435.1 649.068V814.145ZM8553.06 719.424C8530.61 708.748 8508.44 697.797 8508.44 675.623C8508.44 657.007 8523.49 647.7 8543.2 647.7C8576.33 647.7 8596.04 669.874 8605.35 706.284H8606.99V637.844H8605.07L8597.68 654.27C8587.83 644.688 8571.4 637.57 8553.06 637.57C8525.68 637.57 8500.77 654.27 8500.77 684.931C8500.77 715.318 8525.41 725.447 8547.31 735.576L8555.52 739.409C8579.89 750.633 8606.44 761.036 8606.44 787.043C8606.44 803.194 8596.59 817.704 8566.2 817.704C8543.75 817.704 8504.88 809.491 8495.57 746.526L8493.38 746.8L8501.04 815.513C8519.66 818.525 8531.98 827.285 8556.07 827.285C8595.22 827.285 8615.48 802.921 8615.48 776.092C8615.48 744.61 8586.73 735.576 8559.9 722.709L8553.06 719.424Z" fill="black"/>
<path d="M4446.39 639.213V640.856L4450.5 653.448L4390.54 822.357V824H4431.06V822.357C4403.13 811.955 4402.31 808.396 4416.28 768.975L4419.83 758.845H4486.63L4504.7 813.323L4481.16 822.357V824H4524.96V822.357L4465.28 639.213H4446.39ZM4453.78 662.482H4454.88L4484.99 753.918H4421.48L4453.78 662.482ZM4645.9 639.213H4519.42V695.881H4521.06C4534.75 645.783 4532.56 644.141 4555.01 644.141H4574.45V814.145L4550.63 822.357V824H4614.69V822.357L4590.87 814.145V644.141H4610.31C4632.76 644.141 4630.57 645.783 4644.25 695.881H4645.9V639.213ZM4782.71 639.213H4656.24V695.881H4657.88C4671.57 645.783 4669.38 644.141 4691.82 644.141H4711.26V814.145L4687.44 822.357V824H4751.5V822.357L4727.69 814.145V644.141H4747.12C4769.57 644.141 4767.38 645.783 4781.07 695.881H4782.71V639.213ZM4818.78 814.145L4794.97 822.357V824H4859.03V822.357L4835.21 814.145V649.068L4859.03 640.856V639.213H4794.97V640.856L4818.78 649.068V814.145ZM4997.79 639.213H4871.32V695.881H4872.96C4886.65 645.783 4884.46 644.141 4906.91 644.141H4926.34V814.145L4902.53 822.357V824H4966.59V822.357L4942.77 814.145V644.141H4962.21C4984.65 644.141 4982.46 645.783 4996.15 695.881H4997.79V639.213ZM5146.38 639.213H5107.51V640.856L5130.23 649.89L5129.96 797.445C5118.46 806.206 5107.78 814.145 5088.62 814.145C5065.9 814.145 5045.09 803.194 5045.09 768.153V639.213H5006.22V640.856L5028.94 649.89L5028.66 770.891C5028.66 808.943 5050.29 826.738 5084.51 826.738C5091.08 826.738 5112.98 815.24 5129.96 802.647V824H5168.83V822.357L5146.11 813.323L5146.38 639.213ZM5238.04 639.213H5180.55V640.856L5203.27 649.89V813.323L5180.55 822.357V824H5229.83C5304.84 824 5329.47 773.081 5329.47 729.28C5329.47 670.421 5294.98 639.213 5238.04 639.213ZM5219.42 819.072V644.141H5230.92C5287.59 644.141 5312.23 679.182 5312.23 731.47C5312.23 787.043 5287.86 818.525 5228.46 819.072H5219.42ZM5468.79 767.332C5467.14 773.081 5465.78 778.009 5464.68 782.389C5454.83 818.525 5454.55 819.072 5436.48 819.072H5377.63V732.838H5411.3C5429.09 732.838 5427.18 741.599 5435.94 766.237H5437.58V694.512H5435.94C5427.18 718.603 5429.09 727.911 5411.3 727.911H5377.63V644.141H5432.38C5450.45 644.141 5450.72 644.688 5460.57 680.824C5461.67 685.204 5463.04 690.132 5464.68 695.881H5466.32V639.213H5338.75V640.856L5361.47 649.89V813.323L5338.75 822.357V824H5470.43V767.332H5468.79ZM5569.1 814.145L5545.28 822.357V824H5609.34V822.357L5585.52 814.145V649.068L5609.34 640.856V639.213H5545.28V640.856L5569.1 649.068V814.145ZM5687.06 719.424C5664.61 708.748 5642.44 697.797 5642.44 675.623C5642.44 657.007 5657.49 647.7 5677.2 647.7C5710.33 647.7 5730.04 669.874 5739.35 706.284H5740.99V637.844H5739.07L5731.68 654.27C5721.83 644.688 5705.4 637.57 5687.06 637.57C5659.68 637.57 5634.77 654.27 5634.77 684.931C5634.77 715.318 5659.41 725.447 5681.31 735.576L5689.52 739.409C5713.89 750.633 5740.44 761.036 5740.44 787.043C5740.44 803.194 5730.59 817.704 5700.2 817.704C5677.75 817.704 5638.88 809.491 5629.57 746.526L5627.38 746.8L5635.04 815.513C5653.66 818.525 5665.98 827.285 5690.07 827.285C5729.22 827.285 5749.48 802.921 5749.48 776.092C5749.48 744.61 5720.73 735.576 5693.9 722.709L5687.06 719.424Z" fill="black"/>
<path d="M1522.86 80.4925V569H1630.06V524.899H1574.42V328.817H1628.02V285.394H1574.42V124.594H1630.06V80.4925H1522.86ZM1688.84 80.4925H1636.6L1686.13 569H1734.3L1783.83 80.4925H1731.58L1709.87 299.642L1688.84 80.4925ZM1795.84 80.4925V569H1903.04V524.899H1847.4V328.817H1901V285.394H1847.4V124.594H1903.04V80.4925H1795.84ZM1980.82 80.4925H1919.08V569H1969.97V343.744H1983.53C1991.68 345.779 1995.07 349.85 1995.07 362.741V545.932C1995.07 558.823 1995.07 562.215 1999.82 569H2052.06C2046.63 562.215 2045.96 555.43 2045.96 545.253V357.992C2045.96 331.531 2033.06 324.746 2022.21 319.997C2035.1 315.248 2045.28 305.07 2045.28 277.253V140.199C2045.28 108.31 2026.96 80.4925 1980.82 80.4925ZM1969.97 294.215V131.379H1984.21C1990.32 131.379 1994.39 137.485 1994.39 144.948V279.966C1994.39 290.144 1985.57 294.215 1980.82 294.215H1969.97ZM2112.23 80.4925H2059.99L2116.3 393.273V569H2167.86V393.273L2223.5 80.4925H2171.26L2142.08 248.078L2112.23 80.4925ZM2226.29 80.4925V124.594H2270.4V569H2321.28V124.594H2365.38V80.4925H2226.29ZM2377.58 80.4925V569H2429.15V338.316H2453.57V569H2504.46V80.4925H2453.57V294.215H2429.15V80.4925H2377.58ZM2526 80.4925V569H2577.57V80.4925H2526ZM2599.55 80.4925V569H2651.11V356.635L2699.96 569H2738.64V80.4925H2687.07V275.896L2640.26 80.4925H2599.55ZM2812.12 514.043V137.485C2812.12 129.343 2816.87 124.594 2824.33 124.594C2833.15 124.594 2836.55 130.022 2836.55 137.485V243.328H2885.4V133.414C2885.4 100.169 2865.72 75.7432 2824.33 75.7432C2780.91 75.7432 2760.56 99.4901 2760.56 133.414V520.149C2760.56 556.109 2777.52 575.785 2815.51 575.785C2831.12 575.785 2848.08 567.643 2854.19 552.716L2863.01 569H2885.4V295.572H2823.66V338.994H2836.55V514.043C2836.55 522.863 2831.8 526.934 2824.33 526.934C2815.51 526.934 2812.12 521.506 2812.12 514.043Z" fill="black"/>
<path d="M7260.86 80.4925V569H7368.06V524.899H7312.42V328.817H7366.02V285.394H7312.42V124.594H7368.06V80.4925H7260.86ZM7426.84 80.4925H7374.6L7424.13 569H7472.3L7521.83 80.4925H7469.58L7447.87 299.642L7426.84 80.4925ZM7533.84 80.4925V569H7641.04V524.899H7585.4V328.817H7639V285.394H7585.4V124.594H7641.04V80.4925H7533.84ZM7718.82 80.4925H7657.08V569H7707.97V343.744H7721.53C7729.68 345.779 7733.07 349.85 7733.07 362.741V545.932C7733.07 558.823 7733.07 562.215 7737.82 569H7790.06C7784.63 562.215 7783.96 555.43 7783.96 545.253V357.992C7783.96 331.531 7771.06 324.746 7760.21 319.997C7773.1 315.248 7783.28 305.07 7783.28 277.253V140.199C7783.28 108.31 7764.96 80.4925 7718.82 80.4925ZM7707.97 294.215V131.379H7722.21C7728.32 131.379 7732.39 137.485 7732.39 144.948V279.966C7732.39 290.144 7723.57 294.215 7718.82 294.215H7707.97ZM7850.23 80.4925H7797.99L7854.3 393.273V569H7905.86V393.273L7961.5 80.4925H7909.26L7880.08 248.078L7850.23 80.4925ZM7964.29 80.4925V124.594H8008.4V569H8059.28V124.594H8103.38V80.4925H7964.29ZM8115.58 80.4925V569H8167.15V338.316H8191.57V569H8242.46V80.4925H8191.57V294.215H8167.15V80.4925H8115.58ZM8264 80.4925V569H8315.57V80.4925H8264ZM8337.55 80.4925V569H8389.11V356.635L8437.96 569H8476.64V80.4925H8425.07V275.896L8378.26 80.4925H8337.55ZM8550.12 514.043V137.485C8550.12 129.343 8554.87 124.594 8562.33 124.594C8571.15 124.594 8574.55 130.022 8574.55 137.485V243.328H8623.4V133.414C8623.4 100.169 8603.72 75.7432 8562.33 75.7432C8518.91 75.7432 8498.56 99.4901 8498.56 133.414V520.149C8498.56 556.109 8515.52 575.785 8553.51 575.785C8569.12 575.785 8586.08 567.643 8592.19 552.716L8601.01 569H8623.4V295.572H8561.66V338.994H8574.55V514.043C8574.55 522.863 8569.8 526.934 8562.33 526.934C8553.51 526.934 8550.12 521.506 8550.12 514.043Z" fill="black"/>
<path d="M4394.86 80.4925V569H4502.06V524.899H4446.42V328.817H4500.02V285.394H4446.42V124.594H4502.06V80.4925H4394.86ZM4560.84 80.4925H4508.6L4558.13 569H4606.3L4655.83 80.4925H4603.58L4581.87 299.642L4560.84 80.4925ZM4667.84 80.4925V569H4775.04V524.899H4719.4V328.817H4773V285.394H4719.4V124.594H4775.04V80.4925H4667.84ZM4852.82 80.4925H4791.08V569H4841.97V343.744H4855.53C4863.68 345.779 4867.07 349.85 4867.07 362.741V545.932C4867.07 558.823 4867.07 562.215 4871.82 569H4924.06C4918.63 562.215 4917.96 555.43 4917.96 545.253V357.992C4917.96 331.531 4905.06 324.746 4894.21 319.997C4907.1 315.248 4917.28 305.07 4917.28 277.253V140.199C4917.28 108.31 4898.96 80.4925 4852.82 80.4925ZM4841.97 294.215V131.379H4856.21C4862.32 131.379 4866.39 137.485 4866.39 144.948V279.966C4866.39 290.144 4857.57 294.215 4852.82 294.215H4841.97ZM4984.23 80.4925H4931.99L4988.3 393.273V569H5039.86V393.273L5095.5 80.4925H5043.26L5014.08 248.078L4984.23 80.4925ZM5098.29 80.4925V124.594H5142.4V569H5193.28V124.594H5237.38V80.4925H5098.29ZM5249.58 80.4925V569H5301.15V338.316H5325.57V569H5376.46V80.4925H5325.57V294.215H5301.15V80.4925H5249.58ZM5398 80.4925V569H5449.57V80.4925H5398ZM5471.55 80.4925V569H5523.11V356.635L5571.96 569H5610.64V80.4925H5559.07V275.896L5512.26 80.4925H5471.55ZM5684.12 514.043V137.485C5684.12 129.343 5688.87 124.594 5696.33 124.594C5705.15 124.594 5708.55 130.022 5708.55 137.485V243.328H5757.4V133.414C5757.4 100.169 5737.72 75.7432 5696.33 75.7432C5652.91 75.7432 5632.56 99.4901 5632.56 133.414V520.149C5632.56 556.109 5649.52 575.785 5687.51 575.785C5703.12 575.785 5720.08 567.643 5726.19 552.716L5735.01 569H5757.4V295.572H5695.66V338.994H5708.55V514.043C5708.55 522.863 5703.8 526.934 5696.33 526.934C5687.51 526.934 5684.12 521.506 5684.12 514.043Z" fill="black"/>
<path d="M79.8557 335.525V824.033H187.056V779.931H131.42V583.85H185.021V540.427H131.42V379.627H187.056V335.525H79.8557ZM245.84 335.525H193.597L243.126 824.033H291.298L340.828 335.525H288.585L266.873 554.675L245.84 335.525ZM352.839 335.525V824.033H460.039V779.931H404.404V583.85H458.004V540.427H404.404V379.627H460.039V335.525H352.839ZM537.821 335.525H476.079V824.033H526.965V598.776H540.535C548.677 600.812 552.069 604.883 552.069 617.774V800.964C552.069 813.855 552.069 817.248 556.818 824.033H609.062C603.634 817.248 602.955 810.463 602.955 800.286V613.025C602.955 586.564 590.064 579.779 579.208 575.03C592.099 570.28 602.277 560.103 602.277 532.285V395.232C602.277 363.343 583.958 335.525 537.821 335.525ZM526.965 549.247V386.411H541.213C547.32 386.411 551.39 392.518 551.39 399.981V534.999C551.39 545.176 542.57 549.247 537.821 549.247H526.965ZM669.229 335.525H616.986L673.3 648.306V824.033H724.865V648.306L780.5 335.525H728.257L699.082 503.11L669.229 335.525ZM783.294 335.525V379.627H827.395V824.033H878.281V379.627H922.383V335.525H783.294ZM934.585 335.525V824.033H986.149V593.349H1010.57V824.033H1061.46V335.525H1010.57V549.247H986.149V335.525H934.585ZM1083 335.525V824.033H1134.57V335.525H1083ZM1156.55 335.525V824.033H1208.11V611.668L1256.96 824.033H1295.64V335.525H1244.07V530.928L1197.26 335.525H1156.55ZM1369.12 769.076V392.518C1369.12 384.376 1373.87 379.627 1381.33 379.627C1390.15 379.627 1393.55 385.054 1393.55 392.518V498.361H1442.4V388.447C1442.4 355.201 1422.72 330.776 1381.33 330.776C1337.91 330.776 1317.56 354.523 1317.56 388.447V775.182C1317.56 811.142 1334.52 830.818 1372.51 830.818C1388.12 830.818 1405.08 822.676 1411.19 807.749L1420.01 824.033H1442.4V550.604H1380.66V594.027H1393.55V769.076C1393.55 777.896 1388.8 781.967 1381.33 781.967C1372.51 781.967 1369.12 776.539 1369.12 769.076Z" fill="black"/>
<path d="M5817.86 335.525V824.033H5925.06V779.931H5869.42V583.85H5923.02V540.427H5869.42V379.627H5925.06V335.525H5817.86ZM5983.84 335.525H5931.6L5981.13 824.033H6029.3L6078.83 335.525H6026.58L6004.87 554.675L5983.84 335.525ZM6090.84 335.525V824.033H6198.04V779.931H6142.4V583.85H6196V540.427H6142.4V379.627H6198.04V335.525H6090.84ZM6275.82 335.525H6214.08V824.033H6264.97V598.776H6278.53C6286.68 600.812 6290.07 604.883 6290.07 617.774V800.964C6290.07 813.855 6290.07 817.248 6294.82 824.033H6347.06C6341.63 817.248 6340.96 810.463 6340.96 800.286V613.025C6340.96 586.564 6328.06 579.779 6317.21 575.03C6330.1 570.28 6340.28 560.103 6340.28 532.285V395.232C6340.28 363.343 6321.96 335.525 6275.82 335.525ZM6264.97 549.247V386.411H6279.21C6285.32 386.411 6289.39 392.518 6289.39 399.981V534.999C6289.39 545.176 6280.57 549.247 6275.82 549.247H6264.97ZM6407.23 335.525H6354.99L6411.3 648.306V824.033H6462.86V648.306L6518.5 335.525H6466.26L6437.08 503.11L6407.23 335.525ZM6521.29 335.525V379.627H6565.4V824.033H6616.28V379.627H6660.38V335.525H6521.29ZM6672.58 335.525V824.033H6724.15V593.349H6748.57V824.033H6799.46V335.525H6748.57V549.247H6724.15V335.525H6672.58ZM6821 335.525V824.033H6872.57V335.525H6821ZM6894.55 335.525V824.033H6946.11V611.668L6994.96 824.033H7033.64V335.525H6982.07V530.928L6935.26 335.525H6894.55ZM7107.12 769.076V392.518C7107.12 384.376 7111.87 379.627 7119.33 379.627C7128.15 379.627 7131.55 385.054 7131.55 392.518V498.361H7180.4V388.447C7180.4 355.201 7160.72 330.776 7119.33 330.776C7075.91 330.776 7055.56 354.523 7055.56 388.447V775.182C7055.56 811.142 7072.52 830.818 7110.51 830.818C7126.12 830.818 7143.08 822.676 7149.19 807.749L7158.01 824.033H7180.4V550.604H7118.66V594.027H7131.55V769.076C7131.55 777.896 7126.8 781.967 7119.33 781.967C7110.51 781.967 7107.12 776.539 7107.12 769.076Z" fill="black"/>
<path d="M2951.86 335.525V824.033H3059.06V779.931H3003.42V583.85H3057.02V540.427H3003.42V379.627H3059.06V335.525H2951.86ZM3117.84 335.525H3065.6L3115.13 824.033H3163.3L3212.83 335.525H3160.58L3138.87 554.675L3117.84 335.525ZM3224.84 335.525V824.033H3332.04V779.931H3276.4V583.85H3330V540.427H3276.4V379.627H3332.04V335.525H3224.84ZM3409.82 335.525H3348.08V824.033H3398.97V598.776H3412.53C3420.68 600.812 3424.07 604.883 3424.07 617.774V800.964C3424.07 813.855 3424.07 817.248 3428.82 824.033H3481.06C3475.63 817.248 3474.96 810.463 3474.96 800.286V613.025C3474.96 586.564 3462.06 579.779 3451.21 575.03C3464.1 570.28 3474.28 560.103 3474.28 532.285V395.232C3474.28 363.343 3455.96 335.525 3409.82 335.525ZM3398.97 549.247V386.411H3413.21C3419.32 386.411 3423.39 392.518 3423.39 399.981V534.999C3423.39 545.176 3414.57 549.247 3409.82 549.247H3398.97ZM3541.23 335.525H3488.99L3545.3 648.306V824.033H3596.86V648.306L3652.5 335.525H3600.26L3571.08 503.11L3541.23 335.525ZM3655.29 335.525V379.627H3699.4V824.033H3750.28V379.627H3794.38V335.525H3655.29ZM3806.58 335.525V824.033H3858.15V593.349H3882.57V824.033H3933.46V335.525H3882.57V549.247H3858.15V335.525H3806.58ZM3955 335.525V824.033H4006.57V335.525H3955ZM4028.55 335.525V824.033H4080.11V611.668L4128.96 824.033H4167.64V335.525H4116.07V530.928L4069.26 335.525H4028.55ZM4241.12 769.076V392.518C4241.12 384.376 4245.87 379.627 4253.33 379.627C4262.15 379.627 4265.55 385.054 4265.55 392.518V498.361H4314.4V388.447C4314.4 355.201 4294.72 330.776 4253.33 330.776C4209.91 330.776 4189.56 354.523 4189.56 388.447V775.182C4189.56 811.142 4206.52 830.818 4244.51 830.818C4260.12 830.818 4277.08 822.676 4283.19 807.749L4292.01 824.033H4314.4V550.604H4252.66V594.027H4265.55V769.076C4265.55 777.896 4260.8 781.967 4253.33 781.967C4244.51 781.967 4241.12 776.539 4241.12 769.076Z" fill="black"/>
<path d="M8689.86 335.525V824.033H8797.06V779.931H8741.42V583.85H8795.02V540.427H8741.42V379.627H8797.06V335.525H8689.86ZM8855.84 335.525H8803.6L8853.13 824.033H8901.3L8950.83 335.525H8898.58L8876.87 554.675L8855.84 335.525ZM8962.84 335.525V824.033H9070.04V779.931H9014.4V583.85H9068V540.427H9014.4V379.627H9070.04V335.525H8962.84ZM9147.82 335.525H9086.08V824.033H9136.97V598.776H9150.53C9158.68 600.812 9162.07 604.883 9162.07 617.774V800.964C9162.07 813.855 9162.07 817.248 9166.82 824.033H9219.06C9213.63 817.248 9212.96 810.463 9212.96 800.286V613.025C9212.96 586.564 9200.06 579.779 9189.21 575.03C9202.1 570.28 9212.28 560.103 9212.28 532.285V395.232C9212.28 363.343 9193.96 335.525 9147.82 335.525ZM9136.97 549.247V386.411H9151.21C9157.32 386.411 9161.39 392.518 9161.39 399.981V534.999C9161.39 545.176 9152.57 549.247 9147.82 549.247H9136.97ZM9279.23 335.525H9226.99L9283.3 648.306V824.033H9334.86V648.306L9390.5 335.525H9338.26L9309.08 503.11L9279.23 335.525ZM9393.29 335.525V379.627H9437.4V824.033H9488.28V379.627H9532.38V335.525H9393.29ZM9544.58 335.525V824.033H9596.15V593.349H9620.57V824.033H9671.46V335.525H9620.57V549.247H9596.15V335.525H9544.58ZM9693 335.525V824.033H9744.57V335.525H9693ZM9766.55 335.525V824.033H9818.11V611.668L9866.96 824.033H9905.64V335.525H9854.07V530.928L9807.26 335.525H9766.55ZM9979.12 769.076V392.518C9979.12 384.376 9983.87 379.627 9991.33 379.627C10000.2 379.627 10003.5 385.054 10003.5 392.518V498.361H10052.4V388.447C10052.4 355.201 10032.7 330.776 9991.33 330.776C9947.91 330.776 9927.56 354.523 9927.56 388.447V775.182C9927.56 811.142 9944.52 830.818 9982.51 830.818C9998.12 830.818 10015.1 822.676 10021.2 807.749L10030 824.033H10052.4V550.604H9990.66V594.027H10003.5V769.076C10003.5 777.896 9998.8 781.967 9991.33 781.967C9982.51 781.967 9979.12 776.539 9979.12 769.076Z" fill="black"/>
</g>
<defs>
<clipPath id="clip0">
<rect width="10144" height="900" fill="white"/>
</clipPath>
</defs>
</svg>
