<svg width="10221" height="900" viewBox="0 0 10221 900" fill="none" xmlns="http://www.w3.org/2000/svg">
<g clip-path="url(#clip0)">
<rect width="10221" height="900" fill="#5B83CE"/>
<path d="M142.383 78.3456H74.0825V80.297L101.077 91.03V285.198L74.0825 295.931V297.883H132.626C221.742 297.883 251.013 237.388 251.013 185.35C251.013 115.423 210.033 78.3456 142.383 78.3456ZM120.267 292.028V84.1999H133.927C201.251 84.1999 230.523 125.831 230.523 187.952C230.523 253.975 201.577 291.378 131 292.028H120.267ZM362.027 301.135C382.192 301.135 444.638 270.888 444.638 187.952C444.638 131.685 415.366 75.4184 357.148 75.4184C336.983 75.4184 274.537 105.666 274.537 188.602C274.537 244.869 303.809 301.135 362.027 301.135ZM369.182 285.198C320.396 285.198 287.872 233.81 287.872 174.942C287.872 111.845 318.77 91.3552 349.668 91.3552C398.454 91.3552 430.978 142.743 430.978 201.612C430.978 264.708 400.08 285.198 369.182 285.198ZM576.922 80.6223C612.373 90.7047 617.902 91.6804 617.902 139.816V254.301H616.276L500.165 78.3456H475.122V80.297L486.83 93.9571V297.883H535.291V295.606C499.84 285.524 493.986 284.548 493.986 236.412V106.967H495.612L623.106 301.135H625.057V78.3456H576.922V80.6223ZM692.829 76.0689C684.373 76.0689 677.868 82.899 677.868 90.7047C677.868 98.8357 685.024 105.015 692.829 105.666L680.795 163.559H683.072C700.635 121.277 707.465 105.666 707.465 92.3309C707.465 81.2728 700.96 76.0689 692.829 76.0689ZM884.935 78.3456H734.674V145.67H736.625C752.887 86.1514 750.285 84.1999 776.955 84.1999H800.047V286.174L771.751 295.931V297.883H847.857V295.931L819.561 286.174V84.1999H842.653C869.323 84.1999 866.721 86.1514 882.983 145.67H884.935V78.3456ZM1122.02 80.297C1145.76 88.428 1159.42 91.6804 1149.34 128.107L1113.57 257.553H1111.61L1078.11 140.792L1106.09 130.059V128.107H1035.51V130.059C1063.8 139.816 1067.71 141.117 1059.9 169.413L1035.83 257.553H1033.88L983.795 91.03L1011.77 80.297V78.3456H961.353V80.297L1028.03 302.111H1029.65L1066.73 172.015H1068.68L1106.09 302.111H1107.71L1170.48 80.297V78.3456H1122.02V80.297ZM1274.22 301.135C1294.39 301.135 1356.84 270.888 1356.84 187.952C1356.84 131.685 1327.56 75.4184 1269.35 75.4184C1249.18 75.4184 1186.73 105.666 1186.73 188.602C1186.73 244.869 1216.01 301.135 1274.22 301.135ZM1281.38 285.198C1232.59 285.198 1200.07 233.81 1200.07 174.942C1200.07 111.845 1230.97 91.3552 1261.87 91.3552C1310.65 91.3552 1343.18 142.743 1343.18 201.612C1343.18 264.708 1312.28 285.198 1281.38 285.198ZM1474.3 191.529C1510.4 175.918 1533.5 157.379 1533.5 127.132C1533.5 95.2581 1508.45 78.3456 1459.34 78.3456H1374.13V80.297L1401.12 91.03L1400.8 286.174L1372.5 295.931V297.883H1448.61V295.931L1420.31 286.174V191.529H1452.19L1513.66 285.198L1484.39 295.931V297.883H1543.25V295.931L1474.3 191.529ZM1420.31 84.1999H1454.14C1496.74 84.1999 1511.38 104.69 1511.38 133.311C1511.38 168.437 1488.94 185.675 1455.11 185.675H1420.31V84.1999ZM1719.57 80.297V78.3456H1665.26V80.297C1684.77 85.1756 1700.06 91.3552 1674.69 118.025L1608.34 186.976V90.0542L1636.64 80.297V78.3456H1560.53V80.297L1588.83 90.0542V286.174L1560.53 295.931V297.883H1636.64V295.931L1608.34 286.174V195.757L1618.43 185.35L1691.6 285.198L1662.33 295.931V297.883H1721.85V296.257L1632.74 170.714L1719.57 80.297Z" fill="#F1EAF1"/>
<path d="M3547.38 78.3456H3479.08V80.297L3506.08 91.03V285.198L3479.08 295.931V297.883H3537.63C3626.74 297.883 3656.01 237.388 3656.01 185.35C3656.01 115.423 3615.03 78.3456 3547.38 78.3456ZM3525.27 292.028V84.1999H3538.93C3606.25 84.1999 3635.52 125.831 3635.52 187.952C3635.52 253.975 3606.58 291.378 3536 292.028H3525.27ZM3767.03 301.135C3787.19 301.135 3849.64 270.888 3849.64 187.952C3849.64 131.685 3820.37 75.4184 3762.15 75.4184C3741.98 75.4184 3679.54 105.666 3679.54 188.602C3679.54 244.869 3708.81 301.135 3767.03 301.135ZM3774.18 285.198C3725.4 285.198 3692.87 233.81 3692.87 174.942C3692.87 111.845 3723.77 91.3552 3754.67 91.3552C3803.45 91.3552 3835.98 142.743 3835.98 201.612C3835.98 264.708 3805.08 285.198 3774.18 285.198ZM3981.92 80.6223C4017.37 90.7047 4022.9 91.6804 4022.9 139.816V254.301H4021.28L3905.17 78.3456H3880.12V80.297L3891.83 93.9571V297.883H3940.29V295.606C3904.84 285.524 3898.99 284.548 3898.99 236.412V106.967H3900.61L4028.11 301.135H4030.06V78.3456H3981.92V80.6223ZM4097.83 76.0689C4089.37 76.0689 4082.87 82.899 4082.87 90.7047C4082.87 98.8357 4090.02 105.015 4097.83 105.666L4085.8 163.559H4088.07C4105.64 121.277 4112.47 105.666 4112.47 92.3309C4112.47 81.2728 4105.96 76.0689 4097.83 76.0689ZM4289.93 78.3456H4139.67V145.67H4141.62C4157.89 86.1514 4155.29 84.1999 4181.95 84.1999H4205.05V286.174L4176.75 295.931V297.883H4252.86V295.931L4224.56 286.174V84.1999H4247.65C4274.32 84.1999 4271.72 86.1514 4287.98 145.67H4289.93V78.3456ZM4527.02 80.297C4550.76 88.428 4564.42 91.6804 4554.34 128.107L4518.57 257.553H4516.61L4483.11 140.792L4511.09 130.059V128.107H4440.51V130.059C4468.8 139.816 4472.71 141.117 4464.9 169.413L4440.83 257.553H4438.88L4388.79 91.03L4416.77 80.297V78.3456H4366.35V80.297L4433.03 302.111H4434.65L4471.73 172.015H4473.68L4511.09 302.111H4512.71L4575.48 80.297V78.3456H4527.02V80.297ZM4679.22 301.135C4699.39 301.135 4761.84 270.888 4761.84 187.952C4761.84 131.685 4732.56 75.4184 4674.35 75.4184C4654.18 75.4184 4591.73 105.666 4591.73 188.602C4591.73 244.869 4621.01 301.135 4679.22 301.135ZM4686.38 285.198C4637.59 285.198 4605.07 233.81 4605.07 174.942C4605.07 111.845 4635.97 91.3552 4666.87 91.3552C4715.65 91.3552 4748.18 142.743 4748.18 201.612C4748.18 264.708 4717.28 285.198 4686.38 285.198ZM4879.3 191.529C4915.4 175.918 4938.5 157.379 4938.5 127.132C4938.5 95.2581 4913.45 78.3456 4864.34 78.3456H4779.13V80.297L4806.12 91.03L4805.8 286.174L4777.5 295.931V297.883H4853.61V295.931L4825.31 286.174V191.529H4857.19L4918.66 285.198L4889.39 295.931V297.883H4948.25V295.931L4879.3 191.529ZM4825.31 84.1999H4859.14C4901.74 84.1999 4916.38 104.69 4916.38 133.311C4916.38 168.437 4893.94 185.675 4860.11 185.675H4825.31V84.1999ZM5124.57 80.297V78.3456H5070.26V80.297C5089.77 85.1756 5105.06 91.3552 5079.69 118.025L5013.34 186.976V90.0542L5041.64 80.297V78.3456H4965.53V80.297L4993.83 90.0542V286.174L4965.53 295.931V297.883H5041.64V295.931L5013.34 286.174V195.757L5023.43 185.35L5096.6 285.198L5067.33 295.931V297.883H5126.85V296.257L5037.74 170.714L5124.57 80.297Z" fill="#F1EAF1"/>
<path d="M6966.38 78.3456H6898.08V80.297L6925.08 91.03V285.198L6898.08 295.931V297.883H6956.63C7045.74 297.883 7075.01 237.388 7075.01 185.35C7075.01 115.423 7034.03 78.3456 6966.38 78.3456ZM6944.27 292.028V84.1999H6957.93C7025.25 84.1999 7054.52 125.831 7054.52 187.952C7054.52 253.975 7025.58 291.378 6955 292.028H6944.27ZM7186.03 301.135C7206.19 301.135 7268.64 270.888 7268.64 187.952C7268.64 131.685 7239.37 75.4184 7181.15 75.4184C7160.98 75.4184 7098.54 105.666 7098.54 188.602C7098.54 244.869 7127.81 301.135 7186.03 301.135ZM7193.18 285.198C7144.4 285.198 7111.87 233.81 7111.87 174.942C7111.87 111.845 7142.77 91.3552 7173.67 91.3552C7222.45 91.3552 7254.98 142.743 7254.98 201.612C7254.98 264.708 7224.08 285.198 7193.18 285.198ZM7400.92 80.6223C7436.37 90.7047 7441.9 91.6804 7441.9 139.816V254.301H7440.28L7324.17 78.3456H7299.12V80.297L7310.83 93.9571V297.883H7359.29V295.606C7323.84 285.524 7317.99 284.548 7317.99 236.412V106.967H7319.61L7447.11 301.135H7449.06V78.3456H7400.92V80.6223ZM7516.83 76.0689C7508.37 76.0689 7501.87 82.899 7501.87 90.7047C7501.87 98.8357 7509.02 105.015 7516.83 105.666L7504.8 163.559H7507.07C7524.64 121.277 7531.47 105.666 7531.47 92.3309C7531.47 81.2728 7524.96 76.0689 7516.83 76.0689ZM7708.93 78.3456H7558.67V145.67H7560.62C7576.89 86.1514 7574.29 84.1999 7600.95 84.1999H7624.05V286.174L7595.75 295.931V297.883H7671.86V295.931L7643.56 286.174V84.1999H7666.65C7693.32 84.1999 7690.72 86.1514 7706.98 145.67H7708.93V78.3456ZM7946.02 80.297C7969.76 88.428 7983.42 91.6804 7973.34 128.107L7937.57 257.553H7935.61L7902.11 140.792L7930.09 130.059V128.107H7859.51V130.059C7887.8 139.816 7891.71 141.117 7883.9 169.413L7859.83 257.553H7857.88L7807.79 91.03L7835.77 80.297V78.3456H7785.35V80.297L7852.03 302.111H7853.65L7890.73 172.015H7892.68L7930.09 302.111H7931.71L7994.48 80.297V78.3456H7946.02V80.297ZM8098.22 301.135C8118.39 301.135 8180.84 270.888 8180.84 187.952C8180.84 131.685 8151.56 75.4184 8093.35 75.4184C8073.18 75.4184 8010.73 105.666 8010.73 188.602C8010.73 244.869 8040.01 301.135 8098.22 301.135ZM8105.38 285.198C8056.59 285.198 8024.07 233.81 8024.07 174.942C8024.07 111.845 8054.97 91.3552 8085.87 91.3552C8134.65 91.3552 8167.18 142.743 8167.18 201.612C8167.18 264.708 8136.28 285.198 8105.38 285.198ZM8298.3 191.529C8334.4 175.918 8357.5 157.379 8357.5 127.132C8357.5 95.2581 8332.45 78.3456 8283.34 78.3456H8198.13V80.297L8225.12 91.03L8224.8 286.174L8196.5 295.931V297.883H8272.61V295.931L8244.31 286.174V191.529H8276.19L8337.66 285.198L8308.39 295.931V297.883H8367.25V295.931L8298.3 191.529ZM8244.31 84.1999H8278.14C8320.74 84.1999 8335.38 104.69 8335.38 133.311C8335.38 168.437 8312.94 185.675 8279.11 185.675H8244.31V84.1999ZM8543.57 80.297V78.3456H8489.26V80.297C8508.77 85.1756 8524.06 91.3552 8498.69 118.025L8432.34 186.976V90.0542L8460.64 80.297V78.3456H8384.53V80.297L8412.83 90.0542V286.174L8384.53 295.931V297.883H8460.64V295.931L8432.34 286.174V195.757L8442.43 185.35L8515.6 285.198L8486.33 295.931V297.883H8545.85V296.257L8456.74 170.714L8543.57 80.297Z" fill="#F1EAF1"/>
<path d="M5263.38 583.463H5195.08V585.414L5222.08 596.147V790.316L5195.08 801.049V803H5253.63C5342.74 803 5372.01 742.505 5372.01 690.467C5372.01 620.54 5331.03 583.463 5263.38 583.463ZM5241.27 797.146V589.317H5254.93C5322.25 589.317 5351.52 630.948 5351.52 693.069C5351.52 759.093 5322.58 796.495 5252 797.146H5241.27ZM5483.03 806.252C5503.19 806.252 5565.64 776.005 5565.64 693.069C5565.64 636.802 5536.37 580.536 5478.15 580.536C5457.98 580.536 5395.54 610.783 5395.54 693.719C5395.54 749.986 5424.81 806.252 5483.03 806.252ZM5490.18 790.316C5441.4 790.316 5408.87 738.928 5408.87 680.059C5408.87 616.963 5439.77 596.472 5470.67 596.472C5519.45 596.472 5551.98 647.86 5551.98 706.729C5551.98 769.825 5521.08 790.316 5490.18 790.316ZM5697.92 585.739C5733.37 595.822 5738.9 596.798 5738.9 644.933V759.418H5737.28L5621.17 583.463H5596.12V585.414L5607.83 599.074V803H5656.29V800.723C5620.84 790.641 5614.99 789.665 5614.99 741.53V612.084H5616.61L5744.11 806.252H5746.06V583.463H5697.92V585.739ZM5813.83 581.186C5805.37 581.186 5798.87 588.016 5798.87 595.822C5798.87 603.953 5806.02 610.132 5813.83 610.783L5801.8 668.676H5804.07C5821.64 626.394 5828.47 610.783 5828.47 597.448C5828.47 586.39 5821.96 581.186 5813.83 581.186ZM6005.93 583.463H5855.67V650.788H5857.62C5873.89 591.269 5871.29 589.317 5897.95 589.317H5921.05V791.291L5892.75 801.049V803H5968.86V801.049L5940.56 791.291V589.317H5963.65C5990.32 589.317 5987.72 591.269 6003.98 650.788H6005.93V583.463ZM6243.02 585.414C6266.76 593.545 6280.42 596.798 6270.34 633.225L6234.57 762.67H6232.61L6199.11 645.909L6227.09 635.176V633.225H6156.51V635.176C6184.8 644.933 6188.71 646.234 6180.9 674.53L6156.83 762.67H6154.88L6104.79 596.147L6132.77 585.414V583.463H6082.35V585.414L6149.03 807.228H6150.65L6187.73 677.132H6189.68L6227.09 807.228H6228.71L6291.48 585.414V583.463H6243.02V585.414ZM6395.22 806.252C6415.39 806.252 6477.84 776.005 6477.84 693.069C6477.84 636.802 6448.56 580.536 6390.35 580.536C6370.18 580.536 6307.73 610.783 6307.73 693.719C6307.73 749.986 6337.01 806.252 6395.22 806.252ZM6402.38 790.316C6353.59 790.316 6321.07 738.928 6321.07 680.059C6321.07 616.963 6351.97 596.472 6382.87 596.472C6431.65 596.472 6464.18 647.86 6464.18 706.729C6464.18 769.825 6433.28 790.316 6402.38 790.316ZM6595.3 696.646C6631.4 681.035 6654.5 662.496 6654.5 632.249C6654.5 600.375 6629.45 583.463 6580.34 583.463H6495.13V585.414L6522.12 596.147L6521.8 791.291L6493.5 801.049V803H6569.61V801.049L6541.31 791.291V696.646H6573.19L6634.66 790.316L6605.39 801.049V803H6664.25V801.049L6595.3 696.646ZM6541.31 589.317H6575.14C6617.74 589.317 6632.38 609.807 6632.38 638.428C6632.38 673.554 6609.94 690.792 6576.11 690.792H6541.31V589.317ZM6840.57 585.414V583.463H6786.26V585.414C6805.77 590.293 6821.06 596.472 6795.69 623.142L6729.34 692.093V595.171L6757.64 585.414V583.463H6681.53V585.414L6709.83 595.171V791.291L6681.53 801.049V803H6757.64V801.049L6729.34 791.291V700.875L6739.43 690.467L6812.6 790.316L6783.33 801.049V803H6842.85V801.374L6753.74 675.831L6840.57 585.414Z" fill="#F1EAF1"/>
<path d="M1858.38 583.463H1790.08V585.414L1817.08 596.147V790.316L1790.08 801.049V803H1848.63C1937.74 803 1967.01 742.505 1967.01 690.467C1967.01 620.54 1926.03 583.463 1858.38 583.463ZM1836.27 797.146V589.317H1849.93C1917.25 589.317 1946.52 630.948 1946.52 693.069C1946.52 759.093 1917.58 796.495 1847 797.146H1836.27ZM2078.03 806.252C2098.19 806.252 2160.64 776.005 2160.64 693.069C2160.64 636.802 2131.37 580.536 2073.15 580.536C2052.98 580.536 1990.54 610.783 1990.54 693.719C1990.54 749.986 2019.81 806.252 2078.03 806.252ZM2085.18 790.316C2036.4 790.316 2003.87 738.928 2003.87 680.059C2003.87 616.963 2034.77 596.472 2065.67 596.472C2114.45 596.472 2146.98 647.86 2146.98 706.729C2146.98 769.825 2116.08 790.316 2085.18 790.316ZM2292.92 585.739C2328.37 595.822 2333.9 596.798 2333.9 644.933V759.418H2332.28L2216.17 583.463H2191.12V585.414L2202.83 599.074V803H2251.29V800.723C2215.84 790.641 2209.99 789.665 2209.99 741.53V612.084H2211.61L2339.11 806.252H2341.06V583.463H2292.92V585.739ZM2408.83 581.186C2400.37 581.186 2393.87 588.016 2393.87 595.822C2393.87 603.953 2401.02 610.132 2408.83 610.783L2396.8 668.676H2399.07C2416.64 626.394 2423.47 610.783 2423.47 597.448C2423.47 586.39 2416.96 581.186 2408.83 581.186ZM2600.93 583.463H2450.67V650.788H2452.62C2468.89 591.269 2466.29 589.317 2492.95 589.317H2516.05V791.291L2487.75 801.049V803H2563.86V801.049L2535.56 791.291V589.317H2558.65C2585.32 589.317 2582.72 591.269 2598.98 650.788H2600.93V583.463ZM2838.02 585.414C2861.76 593.545 2875.42 596.798 2865.34 633.225L2829.57 762.67H2827.61L2794.11 645.909L2822.09 635.176V633.225H2751.51V635.176C2779.8 644.933 2783.71 646.234 2775.9 674.53L2751.83 762.67H2749.88L2699.79 596.147L2727.77 585.414V583.463H2677.35V585.414L2744.03 807.228H2745.65L2782.73 677.132H2784.68L2822.09 807.228H2823.71L2886.48 585.414V583.463H2838.02V585.414ZM2990.22 806.252C3010.39 806.252 3072.84 776.005 3072.84 693.069C3072.84 636.802 3043.56 580.536 2985.35 580.536C2965.18 580.536 2902.73 610.783 2902.73 693.719C2902.73 749.986 2932.01 806.252 2990.22 806.252ZM2997.38 790.316C2948.59 790.316 2916.07 738.928 2916.07 680.059C2916.07 616.963 2946.97 596.472 2977.87 596.472C3026.65 596.472 3059.18 647.86 3059.18 706.729C3059.18 769.825 3028.28 790.316 2997.38 790.316ZM3190.3 696.646C3226.4 681.035 3249.5 662.496 3249.5 632.249C3249.5 600.375 3224.45 583.463 3175.34 583.463H3090.13V585.414L3117.12 596.147L3116.8 791.291L3088.5 801.049V803H3164.61V801.049L3136.31 791.291V696.646H3168.19L3229.66 790.316L3200.39 801.049V803H3259.25V801.049L3190.3 696.646ZM3136.31 589.317H3170.14C3212.74 589.317 3227.38 609.807 3227.38 638.428C3227.38 673.554 3204.94 690.792 3171.11 690.792H3136.31V589.317ZM3435.57 585.414V583.463H3381.26V585.414C3400.77 590.293 3416.06 596.472 3390.69 623.142L3324.34 692.093V595.171L3352.64 585.414V583.463H3276.53V585.414L3304.83 595.171V791.291L3276.53 801.049V803H3352.64V801.049L3324.34 791.291V700.875L3334.43 690.467L3407.6 790.316L3378.33 801.049V803H3437.85V801.374L3348.74 675.831L3435.57 585.414Z" fill="#F1EAF1"/>
<path d="M5234.97 71.6962H5186.28L5210.63 533H5268.29L5288.79 377.31L5308.01 533H5365.68L5390.02 71.6962H5341.33L5329.16 316.443L5291.36 80.666H5284.95L5247.15 316.443L5234.97 71.6962ZM5401.73 71.6962V533H5450.42V71.6962H5401.73ZM5462.21 71.6962V113.342H5503.85V533H5551.91V113.342H5593.55V71.6962H5462.21ZM5605.07 71.6962V533H5653.77V315.162H5676.83V533H5724.88V71.6962H5676.83V273.517H5653.77V71.6962H5605.07ZM5835.62 533L5842.66 449.068H5871.49L5878.54 533H5926.59L5885.59 71.6962H5828.57L5787.56 533H5835.62ZM5845.87 407.423L5856.76 274.798L5867.65 407.423H5845.87ZM5938.58 355.526V484.948C5938.58 516.983 5957.8 539.407 5996.24 539.407C6038.53 539.407 6056.47 517.623 6056.47 484.948V381.154C6056.47 343.353 6043.01 319.006 6029.56 297.863L5996.88 243.404C5993.68 238.278 5985.35 224.183 5985.35 201.758V123.593C5985.35 116.545 5989.19 111.42 5996.88 111.42C6004.57 111.42 6008.41 115.264 6008.41 123.593V225.464H6054.54V119.749C6054.54 88.3544 6035.96 65.2892 5996.88 65.2892C5955.88 65.2892 5936.66 87.7137 5936.66 119.749V206.243C5936.66 227.386 5943.7 249.17 5953.95 267.11L5986.63 321.569C5998.8 341.431 6008.41 355.526 6008.41 386.92V481.744C6008.41 488.792 6003.93 493.277 5996.88 493.277C5989.83 493.277 5985.35 488.792 5985.35 481.744V355.526H5938.58ZM6076.23 355.526V484.948C6076.23 516.983 6095.45 539.407 6133.89 539.407C6176.18 539.407 6194.12 517.623 6194.12 484.948V381.154C6194.12 343.353 6180.66 319.006 6167.21 297.863L6134.53 243.404C6131.33 238.278 6123 224.183 6123 201.758V123.593C6123 116.545 6126.84 111.42 6134.53 111.42C6142.22 111.42 6146.06 115.264 6146.06 123.593V225.464H6192.19V119.749C6192.19 88.3544 6173.61 65.2892 6134.53 65.2892C6093.53 65.2892 6074.31 87.7137 6074.31 119.749V206.243C6074.31 227.386 6081.35 249.17 6091.61 267.11L6124.28 321.569C6136.45 341.431 6146.06 355.526 6146.06 386.92V481.744C6146.06 488.792 6141.58 493.277 6134.53 493.277C6127.48 493.277 6123 488.792 6123 481.744V355.526H6076.23ZM6213.24 71.6962V533H6261.93V315.162H6285V533H6333.05V71.6962H6285V273.517H6261.93V71.6962H6213.24ZM6471.28 484.948V119.749C6471.28 88.3544 6451.42 65.2892 6412.34 65.2892C6371.33 65.2892 6353.39 87.7137 6353.39 119.749V484.948C6353.39 516.983 6371.33 539.407 6412.34 539.407C6451.42 539.407 6471.28 516.342 6471.28 484.948ZM6400.8 480.463V124.234C6400.8 115.904 6405.29 111.42 6412.34 111.42C6420.66 111.42 6423.87 117.186 6423.87 124.234V480.463C6423.87 488.792 6419.38 493.277 6412.34 493.277C6404.01 493.277 6400.8 487.51 6400.8 480.463ZM6491.67 71.6962V533H6574.96V491.355H6540.36V71.6962H6491.67ZM6586.77 71.6962V533H6688V491.355H6635.46V306.192H6686.08V265.188H6635.46V113.342H6688V71.6962H6586.77ZM6703.79 355.526V484.948C6703.79 516.983 6723.01 539.407 6761.45 539.407C6803.74 539.407 6821.68 517.623 6821.68 484.948V381.154C6821.68 343.353 6808.22 319.006 6794.77 297.863L6762.09 243.404C6758.89 238.278 6750.56 224.183 6750.56 201.758V123.593C6750.56 116.545 6754.4 111.42 6762.09 111.42C6769.78 111.42 6773.62 115.264 6773.62 123.593V225.464H6819.76V119.749C6819.76 88.3544 6801.17 65.2892 6762.09 65.2892C6721.09 65.2892 6701.87 87.7137 6701.87 119.749V206.243C6701.87 227.386 6708.91 249.17 6719.17 267.11L6751.84 321.569C6764.01 341.431 6773.62 355.526 6773.62 386.92V481.744C6773.62 488.792 6769.14 493.277 6762.09 493.277C6755.04 493.277 6750.56 488.792 6750.56 481.744V355.526H6703.79Z" fill="#F1EAF1"/>
<path d="M8682.38 583.463H8614.08V585.414L8641.08 596.147V790.316L8614.08 801.049V803H8672.63C8761.74 803 8791.01 742.505 8791.01 690.467C8791.01 620.54 8750.03 583.463 8682.38 583.463ZM8660.27 797.146V589.317H8673.93C8741.25 589.317 8770.52 630.948 8770.52 693.069C8770.52 759.093 8741.58 796.495 8671 797.146H8660.27ZM8902.03 806.252C8922.19 806.252 8984.64 776.005 8984.64 693.069C8984.64 636.802 8955.37 580.536 8897.15 580.536C8876.98 580.536 8814.54 610.783 8814.54 693.719C8814.54 749.986 8843.81 806.252 8902.03 806.252ZM8909.18 790.316C8860.4 790.316 8827.87 738.928 8827.87 680.059C8827.87 616.963 8858.77 596.472 8889.67 596.472C8938.45 596.472 8970.98 647.86 8970.98 706.729C8970.98 769.825 8940.08 790.316 8909.18 790.316ZM9116.92 585.739C9152.37 595.822 9157.9 596.798 9157.9 644.933V759.418H9156.28L9040.17 583.463H9015.12V585.414L9026.83 599.074V803H9075.29V800.723C9039.84 790.641 9033.99 789.665 9033.99 741.53V612.084H9035.61L9163.11 806.252H9165.06V583.463H9116.92V585.739ZM9232.83 581.186C9224.37 581.186 9217.87 588.016 9217.87 595.822C9217.87 603.953 9225.02 610.132 9232.83 610.783L9220.8 668.676H9223.07C9240.64 626.394 9247.47 610.783 9247.47 597.448C9247.47 586.39 9240.96 581.186 9232.83 581.186ZM9424.93 583.463H9274.67V650.788H9276.62C9292.89 591.269 9290.29 589.317 9316.95 589.317H9340.05V791.291L9311.75 801.049V803H9387.86V801.049L9359.56 791.291V589.317H9382.65C9409.32 589.317 9406.72 591.269 9422.98 650.788H9424.93V583.463ZM9662.02 585.414C9685.76 593.545 9699.42 596.798 9689.34 633.225L9653.57 762.67H9651.61L9618.11 645.909L9646.09 635.176V633.225H9575.51V635.176C9603.8 644.933 9607.71 646.234 9599.9 674.53L9575.83 762.67H9573.88L9523.79 596.147L9551.77 585.414V583.463H9501.35V585.414L9568.03 807.228H9569.65L9606.73 677.132H9608.68L9646.09 807.228H9647.71L9710.48 585.414V583.463H9662.02V585.414ZM9814.22 806.252C9834.39 806.252 9896.84 776.005 9896.84 693.069C9896.84 636.802 9867.56 580.536 9809.35 580.536C9789.18 580.536 9726.73 610.783 9726.73 693.719C9726.73 749.986 9756.01 806.252 9814.22 806.252ZM9821.38 790.316C9772.59 790.316 9740.07 738.928 9740.07 680.059C9740.07 616.963 9770.97 596.472 9801.87 596.472C9850.65 596.472 9883.18 647.86 9883.18 706.729C9883.18 769.825 9852.28 790.316 9821.38 790.316ZM10014.3 696.646C10050.4 681.035 10073.5 662.496 10073.5 632.249C10073.5 600.375 10048.5 583.463 9999.34 583.463H9914.13V585.414L9941.12 596.147L9940.8 791.291L9912.5 801.049V803H9988.61V801.049L9960.31 791.291V696.646H9992.19L10053.7 790.316L10024.4 801.049V803H10083.3V801.049L10014.3 696.646ZM9960.31 589.317H9994.14C10036.7 589.317 10051.4 609.807 10051.4 638.428C10051.4 673.554 10028.9 690.792 9995.11 690.792H9960.31V589.317ZM10259.6 585.414V583.463H10205.3V585.414C10224.8 590.293 10240.1 596.472 10214.7 623.142L10148.3 692.093V595.171L10176.6 585.414V583.463H10100.5V585.414L10128.8 595.171V791.291L10100.5 801.049V803H10176.6V801.049L10148.3 791.291V700.875L10158.4 690.467L10231.6 790.316L10202.3 801.049V803H10261.9V801.374L10172.7 675.831L10259.6 585.414Z" fill="#F1EAF1"/>
<path d="M3532.91 359.27H3484.22L3508.56 820.574H3566.23L3586.73 664.884L3605.95 820.574H3663.61L3687.96 359.27H3639.27L3627.09 604.018L3589.29 368.24H3582.88L3545.08 604.018L3532.91 359.27ZM3699.66 359.27V820.574H3748.36V359.27H3699.66ZM3760.14 359.27V400.916H3801.79V820.574H3849.84V400.916H3891.49V359.27H3760.14ZM3903.01 359.27V820.574H3951.7V602.736H3974.77V820.574H4022.82V359.27H3974.77V561.091H3951.7V359.27H3903.01ZM4133.55 820.574L4140.6 736.643H4169.43L4176.48 820.574H4224.53L4183.53 359.27H4126.5L4085.5 820.574H4133.55ZM4143.8 694.997L4154.69 562.372L4165.59 694.997H4143.8ZM4236.51 643.1V772.522C4236.51 804.557 4255.73 826.981 4294.18 826.981C4336.46 826.981 4354.4 805.197 4354.4 772.522V668.728C4354.4 630.927 4340.95 606.581 4327.49 585.437L4294.82 530.978C4291.61 525.852 4283.28 511.757 4283.28 489.332V411.167C4283.28 404.119 4287.13 398.994 4294.82 398.994C4302.51 398.994 4306.35 402.838 4306.35 411.167V513.038H4352.48V407.323C4352.48 375.929 4333.9 352.863 4294.82 352.863C4253.81 352.863 4234.59 375.288 4234.59 407.323V493.817C4234.59 514.96 4241.64 536.744 4251.89 554.684L4284.57 609.143C4296.74 629.005 4306.35 643.1 4306.35 674.495V769.318C4306.35 776.366 4301.86 780.851 4294.82 780.851C4287.77 780.851 4283.28 776.366 4283.28 769.318V643.1H4236.51ZM4374.16 643.1V772.522C4374.16 804.557 4393.38 826.981 4431.83 826.981C4474.11 826.981 4492.05 805.197 4492.05 772.522V668.728C4492.05 630.927 4478.6 606.581 4465.14 585.437L4432.47 530.978C4429.26 525.852 4420.93 511.757 4420.93 489.332V411.167C4420.93 404.119 4424.78 398.994 4432.47 398.994C4440.16 398.994 4444 402.838 4444 411.167V513.038H4490.13V407.323C4490.13 375.929 4471.55 352.863 4432.47 352.863C4391.46 352.863 4372.24 375.288 4372.24 407.323V493.817C4372.24 514.96 4379.29 536.744 4389.54 554.684L4422.22 609.143C4434.39 629.005 4444 643.1 4444 674.495V769.318C4444 776.366 4439.52 780.851 4432.47 780.851C4425.42 780.851 4420.93 776.366 4420.93 769.318V643.1H4374.16ZM4511.17 359.27V820.574H4559.87V602.736H4582.93V820.574H4630.98V359.27H4582.93V561.091H4559.87V359.27H4511.17ZM4769.22 772.522V407.323C4769.22 375.929 4749.35 352.863 4710.27 352.863C4669.27 352.863 4651.33 375.288 4651.33 407.323V772.522C4651.33 804.557 4669.27 826.981 4710.27 826.981C4749.35 826.981 4769.22 803.916 4769.22 772.522ZM4698.74 768.037V411.808C4698.74 403.479 4703.22 398.994 4710.27 398.994C4718.6 398.994 4721.8 404.76 4721.8 411.808V768.037C4721.8 776.366 4717.32 780.851 4710.27 780.851C4701.94 780.851 4698.74 775.085 4698.74 768.037ZM4789.6 359.27V820.574H4872.89V778.929H4838.3V359.27H4789.6ZM4884.71 359.27V820.574H4985.94V778.929H4933.4V593.767H4984.01V552.762H4933.4V400.916H4985.94V359.27H4884.71ZM5001.72 643.1V772.522C5001.72 804.557 5020.95 826.981 5059.39 826.981C5101.67 826.981 5119.61 805.197 5119.61 772.522V668.728C5119.61 630.927 5106.16 606.581 5092.7 585.437L5060.03 530.978C5056.82 525.852 5048.5 511.757 5048.5 489.332V411.167C5048.5 404.119 5052.34 398.994 5060.03 398.994C5067.72 398.994 5071.56 402.838 5071.56 411.167V513.038H5117.69V407.323C5117.69 375.929 5099.11 352.863 5060.03 352.863C5019.02 352.863 4999.8 375.288 4999.8 407.323V493.817C4999.8 514.96 5006.85 536.744 5017.1 554.684L5049.78 609.143C5061.95 629.005 5071.56 643.1 5071.56 674.495V769.318C5071.56 776.366 5067.08 780.851 5060.03 780.851C5052.98 780.851 5048.5 776.366 5048.5 769.318V643.1H5001.72Z" fill="#F1EAF1"/>
<path d="M1829.97 71.6962H1781.28L1805.63 533H1863.29L1883.79 377.31L1903.01 533H1960.68L1985.02 71.6962H1936.33L1924.16 316.443L1886.36 80.666H1879.95L1842.15 316.443L1829.97 71.6962ZM1996.73 71.6962V533H2045.42V71.6962H1996.73ZM2057.21 71.6962V113.342H2098.85V533H2146.91V113.342H2188.55V71.6962H2057.21ZM2200.07 71.6962V533H2248.77V315.162H2271.83V533H2319.88V71.6962H2271.83V273.517H2248.77V71.6962H2200.07ZM2430.62 533L2437.66 449.068H2466.49L2473.54 533H2521.59L2480.59 71.6962H2423.57L2382.56 533H2430.62ZM2440.87 407.423L2451.76 274.798L2462.65 407.423H2440.87ZM2533.58 355.526V484.948C2533.58 516.983 2552.8 539.407 2591.24 539.407C2633.53 539.407 2651.47 517.623 2651.47 484.948V381.154C2651.47 343.353 2638.01 319.006 2624.56 297.863L2591.88 243.404C2588.68 238.278 2580.35 224.183 2580.35 201.758V123.593C2580.35 116.545 2584.19 111.42 2591.88 111.42C2599.57 111.42 2603.41 115.264 2603.41 123.593V225.464H2649.54V119.749C2649.54 88.3544 2630.96 65.2892 2591.88 65.2892C2550.88 65.2892 2531.66 87.7137 2531.66 119.749V206.243C2531.66 227.386 2538.7 249.17 2548.95 267.11L2581.63 321.569C2593.8 341.431 2603.41 355.526 2603.41 386.92V481.744C2603.41 488.792 2598.93 493.277 2591.88 493.277C2584.83 493.277 2580.35 488.792 2580.35 481.744V355.526H2533.58ZM2671.23 355.526V484.948C2671.23 516.983 2690.45 539.407 2728.89 539.407C2771.18 539.407 2789.12 517.623 2789.12 484.948V381.154C2789.12 343.353 2775.66 319.006 2762.21 297.863L2729.53 243.404C2726.33 238.278 2718 224.183 2718 201.758V123.593C2718 116.545 2721.84 111.42 2729.53 111.42C2737.22 111.42 2741.06 115.264 2741.06 123.593V225.464H2787.19V119.749C2787.19 88.3544 2768.61 65.2892 2729.53 65.2892C2688.53 65.2892 2669.31 87.7137 2669.31 119.749V206.243C2669.31 227.386 2676.35 249.17 2686.61 267.11L2719.28 321.569C2731.45 341.431 2741.06 355.526 2741.06 386.92V481.744C2741.06 488.792 2736.58 493.277 2729.53 493.277C2722.48 493.277 2718 488.792 2718 481.744V355.526H2671.23ZM2808.24 71.6962V533H2856.93V315.162H2880V533H2928.05V71.6962H2880V273.517H2856.93V71.6962H2808.24ZM3066.28 484.948V119.749C3066.28 88.3544 3046.42 65.2892 3007.34 65.2892C2966.33 65.2892 2948.39 87.7137 2948.39 119.749V484.948C2948.39 516.983 2966.33 539.407 3007.34 539.407C3046.42 539.407 3066.28 516.342 3066.28 484.948ZM2995.8 480.463V124.234C2995.8 115.904 3000.29 111.42 3007.34 111.42C3015.66 111.42 3018.87 117.186 3018.87 124.234V480.463C3018.87 488.792 3014.38 493.277 3007.34 493.277C2999.01 493.277 2995.8 487.51 2995.8 480.463ZM3086.67 71.6962V533H3169.96V491.355H3135.36V71.6962H3086.67ZM3181.77 71.6962V533H3283V491.355H3230.46V306.192H3281.08V265.188H3230.46V113.342H3283V71.6962H3181.77ZM3298.79 355.526V484.948C3298.79 516.983 3318.01 539.407 3356.45 539.407C3398.74 539.407 3416.68 517.623 3416.68 484.948V381.154C3416.68 343.353 3403.22 319.006 3389.77 297.863L3357.09 243.404C3353.89 238.278 3345.56 224.183 3345.56 201.758V123.593C3345.56 116.545 3349.4 111.42 3357.09 111.42C3364.78 111.42 3368.62 115.264 3368.62 123.593V225.464H3414.76V119.749C3414.76 88.3544 3396.17 65.2892 3357.09 65.2892C3316.09 65.2892 3296.87 87.7137 3296.87 119.749V206.243C3296.87 227.386 3303.91 249.17 3314.17 267.11L3346.84 321.569C3359.01 341.431 3368.62 355.526 3368.62 386.92V481.744C3368.62 488.792 3364.14 493.277 3357.09 493.277C3350.04 493.277 3345.56 488.792 3345.56 481.744V355.526H3298.79Z" fill="#F1EAF1"/>
<path d="M8653.97 71.6962H8605.28L8629.63 533H8687.29L8707.79 377.31L8727.01 533H8784.68L8809.02 71.6962H8760.33L8748.16 316.443L8710.36 80.666H8703.95L8666.15 316.443L8653.97 71.6962ZM8820.73 71.6962V533H8869.42V71.6962H8820.73ZM8881.21 71.6962V113.342H8922.85V533H8970.91V113.342H9012.55V71.6962H8881.21ZM9024.07 71.6962V533H9072.77V315.162H9095.83V533H9143.88V71.6962H9095.83V273.517H9072.77V71.6962H9024.07ZM9254.62 533L9261.66 449.068H9290.49L9297.54 533H9345.59L9304.59 71.6962H9247.57L9206.56 533H9254.62ZM9264.87 407.423L9275.76 274.798L9286.65 407.423H9264.87ZM9357.58 355.526V484.948C9357.58 516.983 9376.8 539.407 9415.24 539.407C9457.53 539.407 9475.47 517.623 9475.47 484.948V381.154C9475.47 343.353 9462.01 319.006 9448.56 297.863L9415.88 243.404C9412.68 238.278 9404.35 224.183 9404.35 201.758V123.593C9404.35 116.545 9408.19 111.42 9415.88 111.42C9423.57 111.42 9427.41 115.264 9427.41 123.593V225.464H9473.54V119.749C9473.54 88.3544 9454.96 65.2892 9415.88 65.2892C9374.88 65.2892 9355.66 87.7137 9355.66 119.749V206.243C9355.66 227.386 9362.7 249.17 9372.95 267.11L9405.63 321.569C9417.8 341.431 9427.41 355.526 9427.41 386.92V481.744C9427.41 488.792 9422.93 493.277 9415.88 493.277C9408.83 493.277 9404.35 488.792 9404.35 481.744V355.526H9357.58ZM9495.23 355.526V484.948C9495.23 516.983 9514.45 539.407 9552.89 539.407C9595.18 539.407 9613.12 517.623 9613.12 484.948V381.154C9613.12 343.353 9599.66 319.006 9586.21 297.863L9553.53 243.404C9550.33 238.278 9542 224.183 9542 201.758V123.593C9542 116.545 9545.84 111.42 9553.53 111.42C9561.22 111.42 9565.06 115.264 9565.06 123.593V225.464H9611.19V119.749C9611.19 88.3544 9592.61 65.2892 9553.53 65.2892C9512.53 65.2892 9493.31 87.7137 9493.31 119.749V206.243C9493.31 227.386 9500.35 249.17 9510.61 267.11L9543.28 321.569C9555.45 341.431 9565.06 355.526 9565.06 386.92V481.744C9565.06 488.792 9560.58 493.277 9553.53 493.277C9546.48 493.277 9542 488.792 9542 481.744V355.526H9495.23ZM9632.24 71.6962V533H9680.93V315.162H9704V533H9752.05V71.6962H9704V273.517H9680.93V71.6962H9632.24ZM9890.28 484.948V119.749C9890.28 88.3544 9870.42 65.2892 9831.34 65.2892C9790.33 65.2892 9772.39 87.7137 9772.39 119.749V484.948C9772.39 516.983 9790.33 539.407 9831.34 539.407C9870.42 539.407 9890.28 516.342 9890.28 484.948ZM9819.8 480.463V124.234C9819.8 115.904 9824.29 111.42 9831.34 111.42C9839.66 111.42 9842.87 117.186 9842.87 124.234V480.463C9842.87 488.792 9838.38 493.277 9831.34 493.277C9823.01 493.277 9819.8 487.51 9819.8 480.463ZM9910.67 71.6962V533H9993.96V491.355H9959.36V71.6962H9910.67ZM10005.8 71.6962V533H10107V491.355H10054.5V306.192H10105.1V265.188H10054.5V113.342H10107V71.6962H10005.8ZM10122.8 355.526V484.948C10122.8 516.983 10142 539.407 10180.5 539.407C10222.7 539.407 10240.7 517.623 10240.7 484.948V381.154C10240.7 343.353 10227.2 319.006 10213.8 297.863L10181.1 243.404C10177.9 238.278 10169.6 224.183 10169.6 201.758V123.593C10169.6 116.545 10173.4 111.42 10181.1 111.42C10188.8 111.42 10192.6 115.264 10192.6 123.593V225.464H10238.8V119.749C10238.8 88.3544 10220.2 65.2892 10181.1 65.2892C10140.1 65.2892 10120.9 87.7137 10120.9 119.749V206.243C10120.9 227.386 10127.9 249.17 10138.2 267.11L10170.8 321.569C10183 341.431 10192.6 355.526 10192.6 386.92V481.744C10192.6 488.792 10188.1 493.277 10181.1 493.277C10174 493.277 10169.6 488.792 10169.6 481.744V355.526H10122.8Z" fill="#F1EAF1"/>
<path d="M127.91 359.27H79.2169L103.564 820.574H161.227L181.729 664.884L200.95 820.574H258.613L282.959 359.27H234.266L222.093 604.018L184.292 368.24H177.885L140.083 604.018L127.91 359.27ZM294.662 359.27V820.574H343.355V359.27H294.662ZM355.143 359.27V400.916H396.789V820.574H444.841V400.916H486.487V359.27H355.143ZM498.009 359.27V820.574H546.702V602.736H569.768V820.574H617.82V359.27H569.768V561.091H546.702V359.27H498.009ZM728.551 820.574L735.599 736.643H764.43L771.478 820.574H819.53L778.526 359.27H721.503L680.499 820.574H728.551ZM738.802 694.997L749.694 562.372L760.586 694.997H738.802ZM831.514 643.1V772.522C831.514 804.557 850.735 826.981 889.177 826.981C931.463 826.981 949.402 805.197 949.402 772.522V668.728C949.402 630.927 935.948 606.581 922.493 585.437L889.817 530.978C886.614 525.852 878.285 511.757 878.285 489.332V411.167C878.285 404.119 882.129 398.994 889.817 398.994C897.506 398.994 901.35 402.838 901.35 411.167V513.038H947.48V407.323C947.48 375.929 928.9 352.863 889.817 352.863C848.812 352.863 829.591 375.288 829.591 407.323V493.817C829.591 514.96 836.639 536.744 846.89 554.684L879.566 609.143C891.739 629.005 901.35 643.1 901.35 674.495V769.318C901.35 776.366 896.865 780.851 889.817 780.851C882.77 780.851 878.285 776.366 878.285 769.318V643.1H831.514ZM969.164 643.1V772.522C969.164 804.557 988.385 826.981 1026.83 826.981C1069.11 826.981 1087.05 805.197 1087.05 772.522V668.728C1087.05 630.927 1073.6 606.581 1060.14 585.437L1027.47 530.978C1024.26 525.852 1015.93 511.757 1015.93 489.332V411.167C1015.93 404.119 1019.78 398.994 1027.47 398.994C1035.16 398.994 1039 402.838 1039 411.167V513.038H1085.13V407.323C1085.13 375.929 1066.55 352.863 1027.47 352.863C986.463 352.863 967.242 375.288 967.242 407.323V493.817C967.242 514.96 974.289 536.744 984.541 554.684L1017.22 609.143C1029.39 629.005 1039 643.1 1039 674.495V769.318C1039 776.366 1034.52 780.851 1027.47 780.851C1020.42 780.851 1015.93 776.366 1015.93 769.318V643.1H969.164ZM1106.17 359.27V820.574H1154.87V602.736H1177.93V820.574H1225.98V359.27H1177.93V561.091H1154.87V359.27H1106.17ZM1364.22 772.522V407.323C1364.22 375.929 1344.35 352.863 1305.27 352.863C1264.27 352.863 1246.33 375.288 1246.33 407.323V772.522C1246.33 804.557 1264.27 826.981 1305.27 826.981C1344.35 826.981 1364.22 803.916 1364.22 772.522ZM1293.74 768.037V411.808C1293.74 403.479 1298.22 398.994 1305.27 398.994C1313.6 398.994 1316.8 404.76 1316.8 411.808V768.037C1316.8 776.366 1312.32 780.851 1305.27 780.851C1296.94 780.851 1293.74 775.085 1293.74 768.037ZM1384.6 359.27V820.574H1467.89V778.929H1433.3V359.27H1384.6ZM1479.71 359.27V820.574H1580.94V778.929H1528.4V593.767H1579.01V552.762H1528.4V400.916H1580.94V359.27H1479.71ZM1596.72 643.1V772.522C1596.72 804.557 1615.95 826.981 1654.39 826.981C1696.67 826.981 1714.61 805.197 1714.61 772.522V668.728C1714.61 630.927 1701.16 606.581 1687.7 585.437L1655.03 530.978C1651.82 525.852 1643.5 511.757 1643.5 489.332V411.167C1643.5 404.119 1647.34 398.994 1655.03 398.994C1662.72 398.994 1666.56 402.838 1666.56 411.167V513.038H1712.69V407.323C1712.69 375.929 1694.11 352.863 1655.03 352.863C1614.02 352.863 1594.8 375.288 1594.8 407.323V493.817C1594.8 514.96 1601.85 536.744 1612.1 554.684L1644.78 609.143C1656.95 629.005 1666.56 643.1 1666.56 674.495V769.318C1666.56 776.366 1662.08 780.851 1655.03 780.851C1647.98 780.851 1643.5 776.366 1643.5 769.318V643.1H1596.72Z" fill="#F1EAF1"/>
<path d="M6951.91 359.27H6903.22L6927.56 820.574H6985.23L7005.73 664.884L7024.95 820.574H7082.61L7106.96 359.27H7058.27L7046.09 604.018L7008.29 368.24H7001.88L6964.08 604.018L6951.91 359.27ZM7118.66 359.27V820.574H7167.36V359.27H7118.66ZM7179.14 359.27V400.916H7220.79V820.574H7268.84V400.916H7310.49V359.27H7179.14ZM7322.01 359.27V820.574H7370.7V602.736H7393.77V820.574H7441.82V359.27H7393.77V561.091H7370.7V359.27H7322.01ZM7552.55 820.574L7559.6 736.643H7588.43L7595.48 820.574H7643.53L7602.53 359.27H7545.5L7504.5 820.574H7552.55ZM7562.8 694.997L7573.69 562.372L7584.59 694.997H7562.8ZM7655.51 643.1V772.522C7655.51 804.557 7674.73 826.981 7713.18 826.981C7755.46 826.981 7773.4 805.197 7773.4 772.522V668.728C7773.4 630.927 7759.95 606.581 7746.49 585.437L7713.82 530.978C7710.61 525.852 7702.28 511.757 7702.28 489.332V411.167C7702.28 404.119 7706.13 398.994 7713.82 398.994C7721.51 398.994 7725.35 402.838 7725.35 411.167V513.038H7771.48V407.323C7771.48 375.929 7752.9 352.863 7713.82 352.863C7672.81 352.863 7653.59 375.288 7653.59 407.323V493.817C7653.59 514.96 7660.64 536.744 7670.89 554.684L7703.57 609.143C7715.74 629.005 7725.35 643.1 7725.35 674.495V769.318C7725.35 776.366 7720.86 780.851 7713.82 780.851C7706.77 780.851 7702.28 776.366 7702.28 769.318V643.1H7655.51ZM7793.16 643.1V772.522C7793.16 804.557 7812.38 826.981 7850.83 826.981C7893.11 826.981 7911.05 805.197 7911.05 772.522V668.728C7911.05 630.927 7897.6 606.581 7884.14 585.437L7851.47 530.978C7848.26 525.852 7839.93 511.757 7839.93 489.332V411.167C7839.93 404.119 7843.78 398.994 7851.47 398.994C7859.16 398.994 7863 402.838 7863 411.167V513.038H7909.13V407.323C7909.13 375.929 7890.55 352.863 7851.47 352.863C7810.46 352.863 7791.24 375.288 7791.24 407.323V493.817C7791.24 514.96 7798.29 536.744 7808.54 554.684L7841.22 609.143C7853.39 629.005 7863 643.1 7863 674.495V769.318C7863 776.366 7858.52 780.851 7851.47 780.851C7844.42 780.851 7839.93 776.366 7839.93 769.318V643.1H7793.16ZM7930.17 359.27V820.574H7978.87V602.736H8001.93V820.574H8049.98V359.27H8001.93V561.091H7978.87V359.27H7930.17ZM8188.22 772.522V407.323C8188.22 375.929 8168.35 352.863 8129.27 352.863C8088.27 352.863 8070.33 375.288 8070.33 407.323V772.522C8070.33 804.557 8088.27 826.981 8129.27 826.981C8168.35 826.981 8188.22 803.916 8188.22 772.522ZM8117.74 768.037V411.808C8117.74 403.479 8122.22 398.994 8129.27 398.994C8137.6 398.994 8140.8 404.76 8140.8 411.808V768.037C8140.8 776.366 8136.32 780.851 8129.27 780.851C8120.94 780.851 8117.74 775.085 8117.74 768.037ZM8208.6 359.27V820.574H8291.89V778.929H8257.3V359.27H8208.6ZM8303.71 359.27V820.574H8404.94V778.929H8352.4V593.767H8403.01V552.762H8352.4V400.916H8404.94V359.27H8303.71ZM8420.72 643.1V772.522C8420.72 804.557 8439.95 826.981 8478.39 826.981C8520.67 826.981 8538.61 805.197 8538.61 772.522V668.728C8538.61 630.927 8525.16 606.581 8511.7 585.437L8479.03 530.978C8475.82 525.852 8467.5 511.757 8467.5 489.332V411.167C8467.5 404.119 8471.34 398.994 8479.03 398.994C8486.72 398.994 8490.56 402.838 8490.56 411.167V513.038H8536.69V407.323C8536.69 375.929 8518.11 352.863 8479.03 352.863C8438.02 352.863 8418.8 375.288 8418.8 407.323V493.817C8418.8 514.96 8425.85 536.744 8436.1 554.684L8468.78 609.143C8480.95 629.005 8490.56 643.1 8490.56 674.495V769.318C8490.56 776.366 8486.08 780.851 8479.03 780.851C8471.98 780.851 8467.5 776.366 8467.5 769.318V643.1H8420.72Z" fill="#F1EAF1"/>
</g>
<defs>
<clipPath id="clip0">
<rect width="10221" height="900" fill="white"/>
</clipPath>
</defs>
</svg>
